<?xml version="1.0" encoding="UTF-8"?>
<svg xmlns="http://www.w3.org/2000/svg" xmlns:xlink="http://www.w3.org/1999/xlink" width="80px" height="30px" viewBox="0 0 80 30" version="1.1">
  <g id="surface1">
    <path style=" stroke:none;fill-rule:nonzero;fill:rgb(0%,0%,0%);fill-opacity:1;" d="M 42.351562 15.179688 C 42.042969 14.796875 41.65625 14.445312 41.199219 14.113281 C 40.640625 13.710938 39.984375 13.394531 39.234375 13.171875 C 38.484375 12.945312 37.664062 12.832031 36.773438 12.832031 C 35.273438 12.832031 33.9375 13.160156 32.769531 13.816406 C 31.601562 14.476562 30.6875 15.386719 30.023438 16.550781 C 29.359375 17.714844 29.027344 19.035156 29.027344 20.519531 C 29.027344 22 29.355469 23.351562 30.007812 24.515625 C 30.664062 25.679688 31.554688 26.59375 32.6875 27.261719 C 33.816406 27.929688 35.109375 28.261719 36.574219 28.261719 C 37.40625 28.261719 38.195312 28.136719 38.9375 27.894531 C 39.675781 27.652344 40.347656 27.335938 40.945312 26.953125 C 41.503906 26.589844 41.964844 26.1875 42.324219 25.746094 L 42.324219 27.980469 L 45.855469 27.980469 L 45.855469 13.140625 L 42.355469 13.140625 L 42.355469 15.179688 Z M 41.839844 22.953125 C 41.421875 23.65625 40.839844 24.207031 40.089844 24.601562 C 39.339844 24.996094 38.480469 25.191406 37.511719 25.191406 C 36.542969 25.191406 35.660156 24.996094 34.921875 24.601562 C 34.179688 24.207031 33.605469 23.65625 33.199219 22.953125 C 32.789062 22.25 32.585938 21.4375 32.585938 20.519531 C 32.585938 19.597656 32.789062 18.847656 33.199219 18.152344 C 33.605469 17.460938 34.179688 16.910156 34.921875 16.507812 C 35.660156 16.101562 36.523438 15.902344 37.511719 15.902344 C 38.5 15.902344 39.339844 16.101562 40.089844 16.507812 C 40.839844 16.910156 41.421875 17.460938 41.839844 18.152344 C 42.257812 18.847656 42.46875 19.636719 42.46875 20.519531 C 42.46875 21.402344 42.257812 22.25 41.839844 22.953125 Z M 41.839844 22.953125 "></path>
    <path style=" stroke:none;fill-rule:nonzero;fill:rgb(0%,0%,0%);fill-opacity:1;" d="M 60.863281 20.914062 C 60.351562 20.519531 59.699219 20.175781 58.914062 19.886719 C 58.125 19.59375 57.207031 19.34375 56.164062 19.140625 C 55.386719 18.96875 54.726562 18.8125 54.183594 18.660156 C 53.644531 18.507812 53.222656 18.339844 52.917969 18.152344 C 52.726562 18.003906 52.570312 17.839844 52.449219 17.660156 C 52.324219 17.484375 52.273438 17.289062 52.292969 17.082031 C 52.292969 16.800781 52.371094 16.5625 52.535156 16.367188 C 52.695312 16.167969 52.914062 16.007812 53.1875 15.886719 C 53.464844 15.765625 53.792969 15.671875 54.171875 15.605469 C 54.550781 15.539062 54.929688 15.507812 55.308594 15.507812 C 55.824219 15.507812 56.375 15.589844 56.960938 15.757812 C 57.550781 15.929688 58.121094 16.148438 58.671875 16.421875 C 59.222656 16.691406 59.707031 17 60.121094 17.335938 L 62.003906 15.167969 C 61.488281 14.644531 60.867188 14.210938 60.136719 13.875 C 59.40625 13.535156 58.621094 13.277344 57.789062 13.097656 C 56.953125 12.921875 56.125 12.832031 55.308594 12.832031 C 54.417969 12.832031 53.578125 12.933594 52.789062 13.140625 C 52 13.347656 51.308594 13.644531 50.710938 14.027344 C 50.113281 14.414062 49.648438 14.878906 49.316406 15.421875 C 48.984375 15.964844 48.816406 16.566406 48.816406 17.222656 C 48.816406 17.824219 48.921875 18.363281 49.132812 18.84375 C 49.339844 19.320312 49.644531 19.738281 50.042969 20.09375 C 50.535156 20.527344 51.1875 20.894531 51.992188 21.191406 C 52.800781 21.492188 53.753906 21.753906 54.855469 21.980469 C 55.5 22.113281 56.070312 22.25 56.5625 22.390625 C 57.058594 22.53125 57.476562 22.65625 57.816406 22.769531 C 58.386719 23.03125 58.671875 23.40625 58.671875 23.894531 C 58.671875 24.175781 58.589844 24.425781 58.429688 24.640625 C 58.269531 24.859375 58.039062 25.03125 57.746094 25.164062 C 57.453125 25.292969 57.125 25.394531 56.761719 25.457031 C 56.402344 25.523438 56.042969 25.558594 55.679688 25.558594 C 54.695312 25.558594 53.773438 25.394531 52.917969 25.0625 C 52.0625 24.738281 51.316406 24.242188 50.667969 23.585938 L 48.390625 25.585938 C 49.207031 26.484375 50.226562 27.15625 51.453125 27.597656 C 52.675781 28.039062 54.046875 28.257812 55.566406 28.257812 C 56.820312 28.257812 57.933594 28.0625 58.898438 27.667969 C 59.867188 27.273438 60.640625 26.726562 61.21875 26.019531 C 61.800781 25.316406 62.089844 24.496094 62.089844 23.558594 C 62.089844 22.992188 61.984375 22.492188 61.777344 22.050781 C 61.566406 21.609375 61.261719 21.230469 60.863281 20.910156 Z M 60.863281 20.914062 "></path>
    <path style=" stroke:none;fill-rule:nonzero;fill:rgb(0%,0%,0%);fill-opacity:1;" d="M 76.46875 13.140625 L 76.46875 15.179688 C 76.15625 14.800781 75.773438 14.445312 75.316406 14.113281 C 74.753906 13.710938 74.101562 13.394531 73.351562 13.171875 C 72.601562 12.945312 71.78125 12.832031 70.886719 12.832031 C 69.386719 12.832031 68.054688 13.160156 66.886719 13.820312 C 65.71875 14.476562 64.804688 15.386719 64.136719 16.550781 C 63.472656 17.714844 63.140625 19.035156 63.140625 20.519531 C 63.140625 22 63.46875 23.355469 64.125 24.515625 C 64.777344 25.679688 65.671875 26.597656 66.800781 27.261719 C 67.929688 27.929688 69.226562 28.261719 70.6875 28.261719 C 71.523438 28.261719 72.3125 28.140625 73.050781 27.894531 C 73.792969 27.652344 74.460938 27.335938 75.058594 26.953125 C 75.621094 26.589844 76.082031 26.1875 76.441406 25.746094 L 76.441406 27.980469 L 79.972656 27.980469 L 79.972656 13.140625 Z M 75.957031 22.953125 C 75.539062 23.65625 74.953125 24.207031 74.203125 24.601562 C 73.453125 24.996094 72.597656 25.191406 71.628906 25.191406 C 70.660156 25.191406 69.777344 24.996094 69.035156 24.601562 C 68.296875 24.207031 67.722656 23.65625 67.3125 22.953125 C 66.90625 22.25 66.703125 21.4375 66.703125 20.519531 C 66.703125 19.597656 66.90625 18.847656 67.3125 18.152344 C 67.722656 17.460938 68.296875 16.910156 69.035156 16.507812 C 69.777344 16.101562 70.640625 15.902344 71.628906 15.902344 C 72.613281 15.902344 73.453125 16.101562 74.203125 16.507812 C 74.953125 16.910156 75.539062 17.460938 75.957031 18.152344 C 76.375 18.847656 76.582031 19.636719 76.582031 20.519531 C 76.582031 21.402344 76.375 22.25 75.957031 22.953125 Z M 75.957031 22.953125 "></path>
    <path style=" stroke:none;fill-rule:nonzero;fill:rgb(100%,30.196078%,13.333333%);fill-opacity:1;" d="M 42.363281 14.683594 C 42.050781 14.304688 41.667969 13.949219 41.207031 13.617188 C 40.648438 13.214844 39.992188 12.898438 39.242188 12.675781 C 38.492188 12.449219 37.671875 12.335938 36.78125 12.335938 C 35.28125 12.335938 33.949219 12.667969 32.78125 13.324219 C 31.613281 13.980469 30.695312 14.890625 30.03125 16.054688 C 29.367188 17.21875 29.035156 18.542969 29.035156 20.023438 C 29.035156 21.507812 29.363281 22.859375 30.015625 24.019531 C 30.671875 25.183594 31.566406 26.101562 32.695312 26.765625 C 33.824219 27.433594 35.121094 27.765625 36.582031 27.765625 C 37.417969 27.765625 38.203125 27.644531 38.945312 27.398438 C 39.6875 27.15625 40.355469 26.839844 40.953125 26.457031 C 41.515625 26.097656 41.972656 25.691406 42.335938 25.25 L 42.335938 27.484375 L 45.867188 27.484375 L 45.867188 12.648438 L 42.363281 12.648438 Z M 41.847656 22.457031 C 41.429688 23.164062 40.847656 23.710938 40.097656 24.105469 C 39.347656 24.5 38.488281 24.699219 37.519531 24.699219 C 36.554688 24.699219 35.667969 24.5 34.929688 24.105469 C 34.1875 23.710938 33.613281 23.164062 33.207031 22.457031 C 32.796875 21.753906 32.59375 20.941406 32.59375 20.023438 C 32.59375 19.105469 32.796875 18.351562 33.207031 17.660156 C 33.617188 16.964844 34.191406 16.414062 34.929688 16.011719 C 35.671875 15.609375 36.535156 15.40625 37.519531 15.40625 C 38.507812 15.40625 39.347656 15.609375 40.097656 16.011719 C 40.847656 16.414062 41.429688 16.964844 41.847656 17.660156 C 42.265625 18.351562 42.476562 19.140625 42.476562 20.023438 C 42.476562 20.90625 42.265625 21.753906 41.847656 22.457031 Z M 41.847656 22.457031 "></path>
    <path style=" stroke:none;fill-rule:nonzero;fill:rgb(100%,30.196078%,13.333333%);fill-opacity:1;" d="M 60.871094 20.417969 C 60.359375 20.023438 59.710938 19.679688 58.921875 19.390625 C 58.132812 19.097656 57.21875 18.851562 56.171875 18.644531 C 55.394531 18.472656 54.734375 18.316406 54.195312 18.164062 C 53.652344 18.015625 53.230469 17.84375 52.925781 17.65625 C 52.738281 17.507812 52.582031 17.34375 52.457031 17.164062 C 52.332031 16.988281 52.28125 16.792969 52.300781 16.585938 C 52.300781 16.304688 52.378906 16.066406 52.542969 15.871094 C 52.703125 15.671875 52.921875 15.511719 53.195312 15.390625 C 53.472656 15.269531 53.800781 15.175781 54.179688 15.109375 C 54.558594 15.042969 54.9375 15.011719 55.320312 15.011719 C 55.832031 15.011719 56.382812 15.09375 56.96875 15.261719 C 57.558594 15.433594 58.128906 15.652344 58.679688 15.925781 C 59.230469 16.199219 59.714844 16.503906 60.132812 16.839844 L 62.011719 14.671875 C 61.5 14.148438 60.875 13.714844 60.144531 13.378906 C 59.414062 13.039062 58.632812 12.78125 57.796875 12.601562 C 56.960938 12.425781 56.136719 12.335938 55.320312 12.335938 C 54.425781 12.335938 53.585938 12.4375 52.796875 12.644531 C 52.011719 12.851562 51.316406 13.148438 50.71875 13.53125 C 50.121094 13.917969 49.65625 14.382812 49.324219 14.925781 C 48.992188 15.46875 48.828125 16.070312 48.828125 16.726562 C 48.828125 17.328125 48.929688 17.867188 49.140625 18.347656 C 49.347656 18.824219 49.652344 19.242188 50.050781 19.597656 C 50.542969 20.03125 51.195312 20.398438 52 20.695312 C 52.808594 20.996094 53.761719 21.261719 54.863281 21.484375 C 55.507812 21.617188 56.078125 21.753906 56.574219 21.894531 C 57.066406 22.035156 57.484375 22.160156 57.824219 22.273438 C 58.394531 22.535156 58.679688 22.914062 58.679688 23.398438 C 58.679688 23.683594 58.597656 23.929688 58.4375 24.144531 C 58.277344 24.363281 58.046875 24.535156 57.753906 24.667969 C 57.460938 24.796875 57.132812 24.898438 56.773438 24.960938 C 56.410156 25.027344 56.050781 25.0625 55.691406 25.0625 C 54.703125 25.0625 53.78125 24.898438 52.925781 24.570312 C 52.074219 24.242188 51.324219 23.746094 50.675781 23.089844 L 48.398438 25.089844 C 49.214844 25.992188 50.234375 26.660156 51.460938 27.101562 C 52.6875 27.542969 54.058594 27.761719 55.578125 27.761719 C 56.828125 27.761719 57.941406 27.566406 58.90625 27.171875 C 59.875 26.777344 60.648438 26.230469 61.230469 25.523438 C 61.808594 24.820312 62.097656 24 62.097656 23.0625 C 62.097656 22.5 61.992188 21.996094 61.785156 21.554688 C 61.574219 21.113281 61.273438 20.734375 60.871094 20.414062 Z M 60.871094 20.417969 "></path>
    <path style=" stroke:none;fill-rule:nonzero;fill:rgb(100%,30.196078%,13.333333%);fill-opacity:1;" d="M 76.476562 12.648438 L 76.476562 14.683594 C 76.167969 14.304688 75.78125 13.949219 75.324219 13.617188 C 74.765625 13.214844 74.109375 12.898438 73.359375 12.675781 C 72.609375 12.449219 71.789062 12.335938 70.898438 12.335938 C 69.398438 12.335938 68.0625 12.667969 66.894531 13.324219 C 65.726562 13.980469 64.8125 14.890625 64.148438 16.054688 C 63.484375 17.21875 63.152344 18.542969 63.152344 20.023438 C 63.152344 21.507812 63.476562 22.859375 64.132812 24.019531 C 64.789062 25.183594 65.679688 26.101562 66.8125 26.765625 C 67.941406 27.433594 69.234375 27.765625 70.699219 27.765625 C 71.53125 27.765625 72.320312 27.644531 73.0625 27.398438 C 73.800781 27.15625 74.472656 26.839844 75.070312 26.457031 C 75.628906 26.097656 76.089844 25.691406 76.449219 25.25 L 76.449219 27.484375 L 79.980469 27.484375 L 79.980469 12.648438 Z M 75.964844 22.457031 C 75.546875 23.160156 74.964844 23.710938 74.214844 24.105469 C 73.464844 24.5 72.605469 24.695312 71.636719 24.695312 C 70.667969 24.695312 69.785156 24.5 69.046875 24.105469 C 68.304688 23.710938 67.730469 23.164062 67.324219 22.457031 C 66.914062 21.753906 66.710938 20.941406 66.710938 20.023438 C 66.710938 19.105469 66.914062 18.351562 67.324219 17.65625 C 67.730469 16.964844 68.304688 16.414062 69.046875 16.011719 C 69.785156 15.605469 70.648438 15.40625 71.636719 15.40625 C 72.625 15.40625 73.464844 15.605469 74.214844 16.011719 C 74.964844 16.414062 75.546875 16.964844 75.964844 17.65625 C 76.382812 18.351562 76.59375 19.140625 76.59375 20.023438 C 76.59375 20.90625 76.382812 21.753906 75.964844 22.457031 Z M 75.964844 22.457031 "></path>
    <path style=" stroke:none;fill-rule:evenodd;fill:rgb(0%,0%,0%);fill-opacity:1;" d="M 15.464844 26.433594 L 15.546875 28.339844 L 10.933594 30 L 1.980469 10.839844 L 9.757812 8.132812 L 11.941406 14.988281 C 11.605469 13.933594 20.875 6.84375 25.363281 16.480469 C 28.683594 23.667969 21 30 15.464844 26.433594 Z M 15.429688 16.332031 C 17.125 15.507812 19.167969 16.5 19.988281 18.554688 C 20.808594 20.605469 20.097656 22.9375 18.402344 23.761719 C 16.707031 24.589844 14.664062 23.59375 13.84375 21.542969 C 13.023438 19.492188 13.730469 17.160156 15.429688 16.332031 Z M 15.429688 16.332031 "></path>
    <path style=" stroke:none;fill-rule:evenodd;fill:rgb(100%,30.196078%,13.333333%);fill-opacity:1;" d="M 15.347656 25.816406 L 15.433594 27.722656 L 10.820312 29.382812 L 1.867188 10.222656 L 9.644531 7.515625 L 11.828125 14.371094 C 11.492188 13.316406 20.761719 6.226562 25.25 15.863281 C 28.570312 23.050781 20.886719 29.382812 15.351562 25.816406 Z M 15.316406 15.714844 C 17.011719 14.890625 19.054688 15.886719 19.875 17.9375 C 20.695312 19.988281 19.984375 22.320312 18.289062 23.148438 C 16.59375 23.972656 14.550781 22.976562 13.730469 20.925781 C 12.910156 18.875 13.617188 16.542969 15.316406 15.714844 Z M 15.316406 15.714844 "></path>
    <path style=" stroke:none;fill-rule:nonzero;fill:rgb(0%,0%,0%);fill-opacity:1;" d="M 6.566406 3.566406 C 6.566406 5.351562 5.101562 6.800781 3.292969 6.800781 C 1.484375 6.800781 0.0195312 5.351562 0.0195312 3.566406 C 0.0195312 1.777344 1.484375 0.328125 3.292969 0.328125 C 5.101562 0.328125 6.566406 1.777344 6.566406 3.566406 Z M 6.566406 3.566406 "></path>
    <path style=" stroke:none;fill-rule:nonzero;fill:rgb(100%,30.196078%,13.333333%);fill-opacity:1;" d="M 6.566406 3.238281 C 6.566406 5.023438 5.101562 6.472656 3.292969 6.472656 C 1.484375 6.472656 0.0195312 5.023438 0.0195312 3.238281 C 0.0195312 1.449219 1.484375 0 3.292969 0 C 5.101562 0 6.566406 1.449219 6.566406 3.238281 Z M 6.566406 3.238281 "></path>
  </g>
</svg>
