<?xml version="1.0" encoding="UTF-8"?>
<svg xmlns="http://www.w3.org/2000/svg" xmlns:xlink="http://www.w3.org/1999/xlink" width="80px" height="30px" viewBox="0 0 80 30" version="1.1">
  <g id="surface1">
    <path style=" stroke:none;fill-rule:nonzero;fill:rgb(0%,0%,0%);fill-opacity:1;" d="M 42.332031 15.179688 C 42.019531 14.800781 41.644531 14.453125 41.191406 14.125 C 40.636719 13.722656 39.988281 13.414062 39.242188 13.1875 C 38.5 12.964844 37.6875 12.851562 36.800781 12.851562 C 35.3125 12.851562 33.996094 13.175781 32.835938 13.828125 C 31.683594 14.476562 30.773438 15.382812 30.117188 16.535156 C 29.460938 17.6875 29.128906 18.996094 29.128906 20.464844 C 29.128906 21.953125 29.449219 23.273438 30.101562 24.425781 C 30.75 25.578125 31.628906 26.484375 32.753906 27.144531 C 33.871094 27.804688 35.15625 28.132812 36.601562 28.132812 C 37.425781 28.132812 38.210938 28.015625 38.945312 27.773438 C 39.679688 27.535156 40.339844 27.222656 40.929688 26.839844 C 41.488281 26.476562 41.9375 26.082031 42.292969 25.644531 L 42.292969 27.859375 L 45.789062 27.859375 L 45.789062 13.15625 L 42.324219 13.15625 L 42.324219 15.179688 Z M 41.820312 22.871094 C 41.40625 23.566406 40.832031 24.113281 40.085938 24.503906 C 39.34375 24.894531 38.496094 25.09375 37.535156 25.09375 C 36.558594 25.09375 35.703125 24.894531 34.96875 24.503906 C 34.234375 24.113281 33.667969 23.566406 33.261719 22.871094 C 32.855469 22.175781 32.65625 21.371094 32.65625 20.460938 C 32.65625 19.585938 32.855469 18.804688 33.261719 18.121094 C 33.667969 17.429688 34.234375 16.890625 34.96875 16.488281 C 35.703125 16.085938 36.558594 15.886719 37.535156 15.886719 C 38.496094 15.886719 39.34375 16.085938 40.085938 16.488281 C 40.824219 16.890625 41.40625 17.429688 41.820312 18.121094 C 42.234375 18.808594 42.441406 19.589844 42.441406 20.460938 C 42.441406 21.371094 42.234375 22.175781 41.820312 22.871094 Z M 41.820312 22.871094 "></path>
    <path style=" stroke:none;fill-rule:nonzero;fill:rgb(0%,0%,0%);fill-opacity:1;" d="M 60.65625 20.855469 C 60.144531 20.464844 59.503906 20.125 58.726562 19.835938 C 57.941406 19.546875 57.039062 19.300781 56.007812 19.097656 C 55.234375 18.929688 54.578125 18.773438 54.046875 18.625 C 53.511719 18.472656 53.09375 18.304688 52.789062 18.121094 C 52.601562 17.96875 52.441406 17.808594 52.320312 17.632812 C 52.199219 17.460938 52.144531 17.269531 52.164062 17.0625 C 52.164062 16.789062 52.242188 16.546875 52.402344 16.355469 C 52.558594 16.15625 52.777344 16.003906 53.050781 15.882812 C 53.324219 15.761719 53.644531 15.664062 54.019531 15.605469 C 54.398438 15.539062 54.773438 15.511719 55.148438 15.511719 C 55.660156 15.511719 56.199219 15.59375 56.78125 15.761719 C 57.367188 15.929688 57.929688 16.144531 58.476562 16.414062 C 59.023438 16.6875 59.503906 16.984375 59.914062 17.320312 L 61.777344 15.175781 C 61.269531 14.652344 60.65625 14.226562 59.933594 13.890625 C 59.210938 13.554688 58.433594 13.300781 57.609375 13.121094 C 56.78125 12.949219 55.964844 12.859375 55.15625 12.859375 C 54.269531 12.859375 53.4375 12.960938 52.660156 13.164062 C 51.878906 13.367188 51.191406 13.660156 50.605469 14.039062 C 50.007812 14.425781 49.554688 14.878906 49.21875 15.421875 C 48.890625 15.960938 48.726562 16.554688 48.726562 17.203125 C 48.726562 17.796875 48.832031 18.328125 49.039062 18.804688 C 49.246094 19.277344 49.546875 19.691406 49.941406 20.046875 C 50.429688 20.472656 51.078125 20.839844 51.871094 21.132812 C 52.671875 21.433594 53.613281 21.691406 54.707031 21.910156 C 55.34375 22.042969 55.910156 22.175781 56.402344 22.3125 C 56.886719 22.453125 57.304688 22.578125 57.640625 22.691406 C 58.203125 22.949219 58.484375 23.320312 58.484375 23.808594 C 58.484375 24.085938 58.402344 24.335938 58.246094 24.546875 C 58.089844 24.761719 57.855469 24.929688 57.570312 25.0625 C 57.28125 25.195312 56.960938 25.289062 56.601562 25.355469 C 56.242188 25.421875 55.882812 25.453125 55.527344 25.453125 C 54.550781 25.453125 53.640625 25.289062 52.789062 24.964844 C 51.945312 24.640625 51.199219 24.15625 50.5625 23.503906 L 48.304688 25.480469 C 49.109375 26.375 50.125 27.035156 51.332031 27.472656 C 52.546875 27.910156 53.898438 28.128906 55.40625 28.128906 C 56.644531 28.128906 57.75 27.929688 58.707031 27.539062 C 59.667969 27.148438 60.429688 26.605469 61.007812 25.90625 C 61.578125 25.210938 61.871094 24.394531 61.871094 23.472656 C 61.871094 22.914062 61.765625 22.414062 61.558594 21.976562 C 61.355469 21.546875 61.050781 21.167969 60.65625 20.855469 Z M 60.65625 20.855469 "></path>
    <path style=" stroke:none;fill-rule:nonzero;fill:rgb(0%,0%,0%);fill-opacity:1;" d="M 76.109375 13.15625 L 76.109375 15.179688 C 75.800781 14.800781 75.421875 14.453125 74.96875 14.125 C 74.414062 13.722656 73.765625 13.414062 73.019531 13.1875 C 72.277344 12.964844 71.464844 12.851562 70.578125 12.851562 C 69.09375 12.851562 67.777344 13.175781 66.617188 13.828125 C 65.460938 14.476562 64.550781 15.382812 63.898438 16.535156 C 63.242188 17.6875 62.90625 18.996094 62.90625 20.464844 C 62.90625 21.953125 63.230469 23.273438 63.878906 24.425781 C 64.527344 25.578125 65.40625 26.484375 66.53125 27.144531 C 67.648438 27.804688 68.933594 28.132812 70.378906 28.132812 C 71.203125 28.132812 71.988281 28.015625 72.722656 27.773438 C 73.457031 27.535156 74.117188 27.222656 74.707031 26.839844 C 75.265625 26.476562 75.714844 26.082031 76.074219 25.644531 L 76.074219 27.859375 L 79.570312 27.859375 L 79.570312 13.15625 Z M 75.597656 22.871094 C 75.1875 23.566406 74.609375 24.113281 73.863281 24.503906 C 73.121094 24.894531 72.273438 25.09375 71.3125 25.09375 C 70.335938 25.09375 69.480469 24.894531 68.746094 24.503906 C 68.011719 24.113281 67.449219 23.566406 67.039062 22.871094 C 66.632812 22.175781 66.433594 21.371094 66.433594 20.460938 C 66.433594 19.585938 66.632812 18.804688 67.039062 18.121094 C 67.449219 17.429688 68.011719 16.890625 68.746094 16.488281 C 69.480469 16.085938 70.335938 15.886719 71.3125 15.886719 C 72.273438 15.886719 73.121094 16.085938 73.863281 16.488281 C 74.605469 16.890625 75.1875 17.429688 75.597656 18.121094 C 76.011719 18.808594 76.21875 19.589844 76.21875 20.460938 C 76.222656 21.371094 76.011719 22.175781 75.597656 22.871094 Z M 75.597656 22.871094 "></path>
    <path style=" stroke:none;fill-rule:nonzero;fill:rgb(96.862745%,51.372549%,12.54902%);fill-opacity:1;" d="M 42.335938 14.6875 C 42.027344 14.308594 41.652344 13.960938 41.195312 13.632812 C 40.644531 13.230469 39.992188 12.925781 39.246094 12.695312 C 38.507812 12.472656 37.695312 12.359375 36.808594 12.359375 C 35.320312 12.359375 34.003906 12.683594 32.84375 13.339844 C 31.691406 13.984375 30.78125 14.890625 30.125 16.042969 C 29.46875 17.195312 29.136719 18.503906 29.136719 19.972656 C 29.136719 21.460938 29.457031 22.78125 30.105469 23.933594 C 30.753906 25.085938 31.636719 25.992188 32.757812 26.652344 C 33.875 27.3125 35.164062 27.640625 36.605469 27.640625 C 37.433594 27.640625 38.214844 27.523438 38.949219 27.28125 C 39.683594 27.042969 40.347656 26.730469 40.933594 26.347656 C 41.492188 25.984375 41.941406 25.589844 42.300781 25.152344 L 42.300781 27.359375 L 45.796875 27.359375 L 45.796875 12.671875 L 42.332031 12.671875 L 42.332031 14.6875 Z M 41.832031 22.386719 C 41.421875 23.082031 40.84375 23.628906 40.097656 24.019531 C 39.355469 24.40625 38.507812 24.605469 37.546875 24.605469 C 36.570312 24.605469 35.714844 24.40625 34.980469 24.019531 C 34.246094 23.628906 33.679688 23.082031 33.273438 22.386719 C 32.867188 21.691406 32.667969 20.886719 32.667969 19.972656 C 32.667969 19.097656 32.867188 18.316406 33.273438 17.632812 C 33.679688 16.945312 34.246094 16.402344 34.980469 16.003906 C 35.714844 15.601562 36.570312 15.402344 37.546875 15.402344 C 38.507812 15.402344 39.355469 15.601562 40.097656 16.003906 C 40.835938 16.402344 41.421875 16.945312 41.832031 17.632812 C 42.246094 18.324219 42.453125 19.105469 42.453125 19.972656 C 42.453125 20.886719 42.246094 21.691406 41.832031 22.386719 Z M 41.832031 22.386719 "></path>
    <path style=" stroke:none;fill-rule:nonzero;fill:rgb(96.862745%,51.372549%,12.54902%);fill-opacity:1;" d="M 60.667969 20.363281 C 60.15625 19.972656 59.515625 19.632812 58.738281 19.34375 C 57.953125 19.054688 57.050781 18.808594 56.019531 18.605469 C 55.246094 18.4375 54.59375 18.28125 54.058594 18.132812 C 53.523438 17.980469 53.105469 17.8125 52.800781 17.628906 C 52.613281 17.476562 52.457031 17.316406 52.332031 17.140625 C 52.210938 16.96875 52.15625 16.777344 52.175781 16.570312 C 52.175781 16.296875 52.253906 16.054688 52.414062 15.863281 C 52.570312 15.664062 52.789062 15.511719 53.0625 15.390625 C 53.335938 15.269531 53.65625 15.175781 54.035156 15.113281 C 54.410156 15.046875 54.785156 15.019531 55.164062 15.019531 C 55.671875 15.019531 56.210938 15.101562 56.796875 15.269531 C 57.378906 15.4375 57.941406 15.652344 58.488281 15.925781 C 59.035156 16.195312 59.515625 16.492188 59.925781 16.828125 L 61.789062 14.683594 C 61.28125 14.160156 60.667969 13.734375 59.945312 13.398438 C 59.222656 13.0625 58.445312 12.808594 57.621094 12.628906 C 56.796875 12.457031 55.976562 12.367188 55.167969 12.367188 C 54.28125 12.367188 53.449219 12.46875 52.671875 12.671875 C 51.890625 12.875 51.203125 13.171875 50.617188 13.546875 C 50.019531 13.933594 49.566406 14.386719 49.230469 14.929688 C 48.90625 15.46875 48.742188 16.0625 48.742188 16.710938 C 48.742188 17.304688 48.84375 17.839844 49.050781 18.3125 C 49.257812 18.785156 49.558594 19.199219 49.953125 19.554688 C 50.441406 19.980469 51.089844 20.347656 51.882812 20.640625 C 52.6875 20.941406 53.625 21.199219 54.71875 21.421875 C 55.355469 21.550781 55.921875 21.683594 56.414062 21.820312 C 56.898438 21.960938 57.316406 22.085938 57.652344 22.199219 C 58.214844 22.457031 58.496094 22.828125 58.496094 23.316406 C 58.496094 23.59375 58.414062 23.84375 58.257812 24.054688 C 58.101562 24.269531 57.871094 24.4375 57.585938 24.570312 C 57.292969 24.703125 56.972656 24.796875 56.613281 24.863281 C 56.253906 24.929688 55.898438 24.960938 55.539062 24.960938 C 54.5625 24.960938 53.652344 24.796875 52.800781 24.472656 C 51.957031 24.148438 51.210938 23.664062 50.574219 23.011719 L 48.316406 24.988281 C 49.121094 25.882812 50.136719 26.542969 51.34375 26.980469 C 52.558594 27.421875 53.910156 27.636719 55.417969 27.636719 C 56.65625 27.636719 57.761719 27.4375 58.71875 27.046875 C 59.679688 26.65625 60.441406 26.113281 61.019531 25.414062 C 61.589844 24.71875 61.882812 23.902344 61.882812 22.980469 C 61.882812 22.421875 61.777344 21.925781 61.570312 21.484375 C 61.359375 21.054688 61.0625 20.683594 60.667969 20.363281 Z M 60.667969 20.363281 "></path>
    <path style=" stroke:none;fill-rule:nonzero;fill:rgb(96.862745%,51.372549%,12.54902%);fill-opacity:1;" d="M 76.117188 12.671875 L 76.117188 14.6875 C 75.804688 14.308594 75.429688 13.960938 74.972656 13.632812 C 74.421875 13.230469 73.773438 12.925781 73.027344 12.695312 C 72.285156 12.472656 71.472656 12.359375 70.585938 12.359375 C 69.097656 12.359375 67.78125 12.683594 66.621094 13.339844 C 65.46875 13.984375 64.558594 14.890625 63.902344 16.042969 C 63.246094 17.195312 62.914062 18.503906 62.914062 19.972656 C 62.914062 21.460938 63.234375 22.78125 63.882812 23.933594 C 64.535156 25.085938 65.414062 25.992188 66.539062 26.652344 C 67.652344 27.3125 68.941406 27.640625 70.386719 27.640625 C 71.210938 27.640625 71.992188 27.523438 72.726562 27.28125 C 73.460938 27.042969 74.125 26.730469 74.714844 26.347656 C 75.273438 25.984375 75.722656 25.589844 76.078125 25.152344 L 76.078125 27.359375 L 79.574219 27.359375 L 79.574219 12.671875 Z M 75.613281 22.386719 C 75.199219 23.082031 74.621094 23.628906 73.875 24.019531 C 73.136719 24.40625 72.285156 24.605469 71.328125 24.605469 C 70.347656 24.605469 69.492188 24.40625 68.757812 24.019531 C 68.023438 23.628906 67.460938 23.082031 67.054688 22.386719 C 66.644531 21.691406 66.445312 20.886719 66.445312 19.972656 C 66.445312 19.097656 66.644531 18.316406 67.054688 17.632812 C 67.460938 16.945312 68.023438 16.402344 68.757812 16.003906 C 69.492188 15.601562 70.347656 15.402344 71.328125 15.402344 C 72.285156 15.402344 73.136719 15.601562 73.875 16.003906 C 74.617188 16.402344 75.199219 16.945312 75.613281 17.632812 C 76.023438 18.324219 76.230469 19.105469 76.230469 19.972656 C 76.230469 20.886719 76.023438 21.691406 75.613281 22.386719 Z M 75.613281 22.386719 "></path>
    <path style=" stroke:none;fill-rule:evenodd;fill:rgb(0%,0%,0%);fill-opacity:1;" d="M 15.703125 26.320312 L 15.789062 28.210938 L 11.21875 29.855469 L 2.355469 10.882812 L 10.058594 8.203125 L 12.21875 14.988281 C 11.882812 13.945312 21.0625 6.925781 25.511719 16.464844 C 28.796875 23.578125 21.191406 29.851562 15.703125 26.320312 Z M 15.671875 16.320312 C 17.355469 15.503906 19.375 16.488281 20.1875 18.515625 C 21 20.542969 20.296875 22.855469 18.617188 23.675781 C 16.933594 24.492188 14.914062 23.507812 14.101562 21.480469 C 13.285156 19.445312 13.992188 17.136719 15.671875 16.320312 Z M 15.671875 16.320312 "></path>
    <path style=" stroke:none;fill-rule:evenodd;fill:rgb(96.862745%,51.372549%,12.54902%);fill-opacity:1;" d="M 15.59375 25.710938 L 15.679688 27.601562 L 11.109375 29.238281 L 2.246094 10.273438 L 9.949219 7.589844 L 12.109375 14.375 C 11.777344 13.332031 20.953125 6.3125 25.402344 15.851562 C 28.679688 22.96875 21.074219 29.238281 15.59375 25.710938 Z M 15.558594 15.707031 C 17.238281 14.890625 19.257812 15.875 20.074219 17.902344 C 20.886719 19.933594 20.183594 22.242188 18.5 23.0625 C 16.820312 23.878906 14.796875 22.894531 13.984375 20.867188 C 13.171875 18.839844 13.882812 16.523438 15.558594 15.707031 Z M 15.558594 15.707031 "></path>
    <path style=" stroke:none;fill-rule:evenodd;fill:rgb(0%,0%,0%);fill-opacity:1;" d="M 6.894531 3.679688 C 6.894531 5.449219 5.445312 6.882812 3.652344 6.882812 C 1.863281 6.882812 0.414062 5.449219 0.414062 3.679688 C 0.414062 1.910156 1.863281 0.472656 3.652344 0.472656 C 5.445312 0.472656 6.894531 1.910156 6.894531 3.679688 Z M 6.894531 3.679688 "></path>
    <path style=" stroke:none;fill-rule:evenodd;fill:rgb(100%,94.117647%,0%);fill-opacity:1;" d="M 6.894531 3.355469 C 6.894531 5.125 5.445312 6.558594 3.652344 6.558594 C 1.863281 6.558594 0.414062 5.125 0.414062 3.355469 C 0.414062 1.585938 1.863281 0.148438 3.652344 0.148438 C 5.445312 0.148438 6.894531 1.585938 6.894531 3.355469 Z M 6.894531 3.355469 "></path>
  </g>
</svg>
