<?xml version="1.0" encoding="UTF-8"?>
<!-- Generator: Adobe Illustrator 26.4.1, SVG Export Plug-In . SVG Version: 6.00 Build 0)  -->
<svg xmlns="http://www.w3.org/2000/svg" xmlns:xlink="http://www.w3.org/1999/xlink" version="1.1" id="图层_1" x="0px" y="0px" viewBox="0 0 1318 500" style="enable-background:new 0 0 1318 500;" xml:space="preserve">
<style type="text/css">
	.st0{fill:#F78320;}
	.st1{fill-rule:evenodd;clip-rule:evenodd;}
	.st2{fill-rule:evenodd;clip-rule:evenodd;fill:#F78320;}
	.st3{fill-rule:evenodd;clip-rule:evenodd;fill:#FFF000;}
</style>
<g>
	<g>
		<path d="M697.4,253c-5.1-6.3-11.3-12.1-18.8-17.6c-9.1-6.7-19.8-11.8-32.1-15.6c-12.2-3.7-25.6-5.6-40.2-5.6    c-24.5,0-46.2,5.4-65.3,16.3c-19,10.8-34,25.9-44.8,45.1c-10.8,19.2-16.3,41-16.3,65.5c0,24.8,5.3,46.8,16,66    c10.7,19.2,25.2,34.3,43.7,45.3c18.4,11,39.6,16.5,63.4,16.5c13.6,0,26.5-2,38.6-6c12.1-4,23-9.2,32.7-15.6    c9.2-6,16.6-12.6,22.5-19.9v36.9h57.6V219.3h-57.1V253z M689,381.2c-6.8,11.6-16.3,20.7-28.6,27.2c-12.2,6.5-26.2,9.8-42,9.8    c-16.1,0-30.2-3.3-42.3-9.8c-12.1-6.5-21.4-15.6-28.1-27.2c-6.7-11.6-10-25-10-40.2c0-14.6,3.3-27.6,10-39    c6.7-11.5,16-20.5,28.1-27.2c12.1-6.7,26.2-10,42.3-10c15.8,0,29.8,3.3,42,10c12.2,6.7,21.8,15.7,28.6,27.2    c6.8,11.5,10.2,24.5,10.2,39C699.2,356.2,695.8,369.6,689,381.2z"></path>
		<path d="M999.3,347.6c-8.4-6.5-19-12.2-31.8-17c-12.9-4.8-27.8-8.9-44.8-12.3c-12.7-2.8-23.5-5.4-32.3-7.9    c-8.8-2.5-15.7-5.3-20.7-8.4c-3.1-2.5-5.7-5.2-7.7-8.1c-2-2.9-2.9-6.1-2.6-9.5c0-4.6,1.3-8.6,3.9-11.8c2.6-3.3,6.2-5.9,10.7-7.9    c4.5-2,9.8-3.6,16-4.6c6.2-1.1,12.4-1.6,18.6-1.6c8.4,0,17.3,1.4,26.9,4.2c9.6,2.8,18.9,6.4,27.9,10.9c9,4.5,16.9,9.5,23.7,15.1    l30.7-35.8c-8.4-8.7-18.5-15.8-30.4-21.4c-11.9-5.6-24.7-9.8-38.3-12.8c-13.6-2.9-27.1-4.4-40.4-4.4c-14.6,0-28.3,1.7-41.1,5.1    c-12.9,3.4-24.2,8.3-33.9,14.6c-9.8,6.4-17.3,14-22.8,23c-5.4,9-8.1,18.9-8.1,29.7c0,9.9,1.7,18.8,5.1,26.7    c3.4,7.9,8.4,14.8,14.9,20.7c8,7.1,18.7,13.2,31.8,18.1c13.2,5,28.7,9.3,46.7,13c10.5,2.2,19.8,4.4,27.9,6.7    c8,2.3,14.9,4.4,20.4,6.3c9.3,4.3,13.9,10.5,13.9,18.6c0,4.6-1.3,8.8-3.9,12.3c-2.6,3.6-6.4,6.4-11.1,8.6    c-4.8,2.2-10.1,3.8-16,4.9c-5.9,1.1-11.8,1.6-17.7,1.6c-16.1,0-31.1-2.7-45.1-8.1c-13.9-5.4-26.2-13.5-36.7-24.4l-37.2,33    c13.3,14.9,30,25.9,49.9,33.2c20,7.3,42.3,10.9,67.1,10.9c20.4,0,38.6-3.3,54.4-9.8c15.8-6.5,28.4-15.6,37.9-27.2    c9.4-11.6,14.2-25.2,14.2-40.6c0-9.3-1.7-17.6-5.1-24.9C1010.8,359.1,1005.8,352.8,999.3,347.6z"></path>
		<path d="M1253.9,219.3V253c-5.1-6.3-11.3-12.1-18.8-17.6c-9.1-6.7-19.8-11.8-32.1-15.6c-12.2-3.7-25.6-5.6-40.2-5.6    c-24.5,0-46.2,5.4-65.3,16.3c-19,10.8-34,25.9-44.8,45.1c-10.8,19.2-16.3,41-16.3,65.5c0,24.8,5.3,46.8,16,66    c10.7,19.2,25.2,34.3,43.7,45.3c18.4,11,39.6,16.5,63.4,16.5c13.6,0,26.5-2,38.6-6c12.1-4,23-9.2,32.7-15.6    c9.2-6,16.6-12.6,22.5-19.9v36.9h57.6V219.3H1253.9z M1245.5,381.2c-6.8,11.6-16.3,20.7-28.6,27.2c-12.2,6.5-26.2,9.8-42,9.8    c-16.1,0-30.2-3.3-42.3-9.8c-12.1-6.5-21.4-15.6-28.1-27.2c-6.7-11.6-10-25-10-40.2c0-14.6,3.3-27.6,10-39    c6.7-11.5,16-20.5,28.1-27.2c12.1-6.7,26.2-10,42.3-10c15.8,0,29.8,3.3,42,10c12.2,6.7,21.8,15.7,28.6,27.2    c6.8,11.5,10.2,24.5,10.2,39C1255.8,356.2,1252.3,369.6,1245.5,381.2z"></path>
	</g>
	<g>
		<path class="st0" d="M697.5,244.8c-5.1-6.3-11.3-12.1-18.8-17.6c-9.1-6.7-19.8-11.8-32.1-15.6c-12.2-3.7-25.6-5.6-40.2-5.6    c-24.5,0-46.2,5.4-65.3,16.3c-19,10.8-34,25.9-44.8,45.1c-10.8,19.2-16.3,41-16.3,65.5c0,24.8,5.3,46.8,16,66    c10.7,19.2,25.2,34.3,43.7,45.3c18.4,11,39.6,16.5,63.4,16.5c13.6,0,26.5-2,38.6-6c12.1-4,23-9.2,32.7-15.6    c9.2-6,16.6-12.6,22.5-19.9V456h57.6V211.2h-57.1V244.8z M689.2,373.1c-6.8,11.6-16.3,20.7-28.6,27.2c-12.2,6.5-26.2,9.8-42,9.8    c-16.1,0-30.2-3.3-42.3-9.8c-12.1-6.5-21.4-15.6-28.1-27.2c-6.7-11.6-10-25-10-40.2c0-14.6,3.3-27.6,10-39    c6.7-11.5,16-20.5,28.1-27.2c12.1-6.7,26.2-10,42.3-10c15.8,0,29.8,3.3,42,10c12.2,6.7,21.8,15.7,28.6,27.2    c6.8,11.5,10.2,24.5,10.2,39C699.4,348.1,696,361.5,689.2,373.1z"></path>
		<path class="st0" d="M999.5,339.4c-8.4-6.5-19-12.2-31.8-17c-12.9-4.8-27.8-8.9-44.8-12.3c-12.7-2.8-23.5-5.4-32.3-7.9    c-8.8-2.5-15.7-5.3-20.7-8.4c-3.1-2.5-5.7-5.2-7.7-8.1c-2-2.9-2.9-6.1-2.6-9.5c0-4.6,1.3-8.6,3.9-11.8c2.6-3.3,6.2-5.9,10.7-7.9    c4.5-2,9.8-3.6,16-4.6c6.2-1.1,12.4-1.6,18.6-1.6c8.4,0,17.3,1.4,26.9,4.2c9.6,2.8,18.9,6.4,27.9,10.9c9,4.5,16.9,9.5,23.7,15.1    l30.7-35.8c-8.4-8.7-18.5-15.8-30.4-21.4c-11.9-5.6-24.7-9.8-38.3-12.8c-13.6-2.9-27.1-4.4-40.4-4.4c-14.6,0-28.3,1.7-41.1,5.1    c-12.9,3.4-24.2,8.3-33.9,14.6c-9.8,6.4-17.3,14-22.8,23c-5.4,9-8.1,18.9-8.1,29.7c0,9.9,1.7,18.8,5.1,26.7    c3.4,7.9,8.4,14.8,14.9,20.7c8,7.1,18.7,13.2,31.8,18.1c13.2,5,28.7,9.3,46.7,13c10.5,2.2,19.8,4.4,27.9,6.7    c8,2.3,14.9,4.4,20.4,6.3c9.3,4.3,13.9,10.5,13.9,18.6c0,4.6-1.3,8.8-3.9,12.3c-2.6,3.6-6.4,6.4-11.1,8.6    c-4.8,2.2-10.1,3.8-16,4.9c-5.9,1.1-11.8,1.6-17.7,1.6c-16.1,0-31.1-2.7-45.1-8.1c-13.9-5.4-26.2-13.5-36.7-24.4l-37.2,33    c13.3,14.9,30,25.9,49.9,33.2c20,7.3,42.3,10.9,67.1,10.9c20.4,0,38.6-3.3,54.4-9.8c15.8-6.5,28.4-15.6,37.9-27.2    c9.4-11.6,14.2-25.2,14.2-40.6c0-9.3-1.7-17.6-5.1-24.9C1010.9,350.9,1006,344.7,999.5,339.4z"></path>
		<path class="st0" d="M1254,211.2v33.6c-5.1-6.3-11.3-12.1-18.8-17.6c-9.1-6.7-19.8-11.8-32.1-15.6c-12.2-3.7-25.6-5.6-40.2-5.6    c-24.5,0-46.2,5.4-65.3,16.3c-19,10.8-34,25.9-44.8,45.1c-10.8,19.2-16.3,41-16.3,65.5c0,24.8,5.3,46.8,16,66    c10.7,19.2,25.2,34.3,43.7,45.3c18.4,11,39.6,16.5,63.4,16.5c13.6,0,26.5-2,38.6-6c12.1-4,23-9.2,32.7-15.6    c9.2-6,16.6-12.6,22.5-19.9V456h57.6V211.2H1254z M1245.7,373.1c-6.8,11.6-16.3,20.7-28.6,27.2c-12.2,6.5-26.2,9.8-42,9.8    c-16.1,0-30.2-3.3-42.3-9.8c-12.1-6.5-21.4-15.6-28.1-27.2c-6.7-11.6-10-25-10-40.2c0-14.6,3.3-27.6,10-39    c6.7-11.5,16-20.5,28.1-27.2c12.1-6.7,26.2-10,42.3-10c15.8,0,29.8,3.3,42,10c12.2,6.7,21.8,15.7,28.6,27.2    c6.8,11.5,10.2,24.5,10.2,39C1255.9,348.1,1252.5,361.5,1245.7,373.1z"></path>
	</g>
	<path class="st1" d="M258.7,438.7l1.4,31.5l-75.3,27.4L38.8,181.4l126.9-44.7l35.6,113.1c-5.5-17.4,145.7-134.4,219,24.6   C474.4,393,349.1,497.5,258.7,438.7L258.7,438.7z M258.2,272c27.7-13.6,61,2.8,74.4,36.6s1.8,72.3-25.9,86   c-27.7,13.6-61-2.8-74.4-36.6C218.9,324.1,230.5,285.6,258.2,272L258.2,272z"></path>
	<path class="st2" d="M256.9,428.5l1.4,31.5L183,487.3L37,171.2l126.9-44.7l35.6,113.1c-5.5-17.4,145.7-134.4,219,24.6   C472.5,382.8,347.2,487.3,256.9,428.5L256.9,428.5z M256.3,261.8c27.7-13.6,61,2.8,74.4,36.6s1.8,72.3-25.9,86   c-27.7,13.6-61-2.8-74.4-36.6S228.7,275.4,256.3,261.8L256.3,261.8z"></path>
	<g>
		<circle class="st1" cx="60.2" cy="61.3" r="53.4"></circle>
		<g>
			<circle class="st3" cx="60.2" cy="55.9" r="53.4"></circle>
		</g>
	</g>
</g>
</svg>
