<?xml version="1.0" encoding="UTF-8"?>
<svg xmlns="http://www.w3.org/2000/svg" id="_图层_1" data-name="图层 1" viewBox="0 0 171 34">
  <defs>
    <style>
      .cls-1 {
        fill: #aaa;
      }
    </style>
  </defs>
  <path class="cls-1" d="M19.54,14.85l5.83-5.83,5.83,5.83,3.39-3.39L25.37,2.24l-9.22,9.22,3.39,3.39Z"></path>
  <path class="cls-1" d="M10.37,17.24l3.39-3.39,3.39,3.39-3.39,3.39-3.39-3.39Z"></path>
  <path class="cls-1" d="M19.54,19.63l5.83,5.83,5.83-5.83,3.39,3.39h0l-9.22,9.22-9.22-9.22h0l3.39-3.39Z"></path>
  <path class="cls-1" d="M33.59,17.24l3.39-3.39,3.39,3.39-3.39,3.39-3.39-3.39Z"></path>
  <path class="cls-1" d="M28.8,17.24l-3.44-3.44-2.54,2.54-.28,.28-.59,.59h0l3.44,3.44,3.41-3.41h0Z"></path>
  <g>
    <path class="cls-1" d="M45.66,9.52h7.37c1.82,0,3.22,.47,4.15,1.42,.71,.71,1.11,1.68,1.09,2.68v.05c0,.4-.05,.81-.17,1.21-.09,.33-.26,.66-.45,.95-.19,.28-.4,.52-.66,.73-.24,.21-.52,.4-.81,.55,.83,.28,1.59,.78,2.18,1.42,.52,.59,.78,1.42,.78,2.49v.05c.02,.66-.12,1.33-.43,1.92-.28,.55-.69,1.02-1.21,1.37-.57,.38-1.21,.66-1.87,.81-.81,.19-1.61,.28-2.44,.28h-7.56l.02-15.92Zm6.64,6.42c.64,.02,1.28-.09,1.85-.4,.45-.26,.71-.76,.69-1.28v-.05c.02-.47-.19-.95-.59-1.21-.4-.28-.97-.43-1.71-.43h-3.46v3.36h3.22Zm.92,6.42c.64,.05,1.28-.12,1.82-.43,.45-.28,.69-.78,.66-1.3v-.05c.02-.5-.21-.97-.62-1.26-.4-.31-1.07-.47-1.97-.47h-4.05v3.51h4.15Z"></path>
    <path class="cls-1" d="M63.55,9.52h3.51v15.9h-3.51V9.52Z"></path>
    <path class="cls-1" d="M72.34,9.52h3.22l7.46,9.79V9.52h3.46v15.9h-2.99l-7.7-10.12v10.12h-3.46V9.52Z"></path>
    <path class="cls-1" d="M97.08,9.4h3.22l6.82,16.02h-3.65l-1.45-3.58h-6.73l-1.45,3.58h-3.58l6.8-16.02Zm3.67,9.36l-2.11-5.17-2.11,5.17h4.22Z"></path>
    <path class="cls-1" d="M110.9,9.52h3.22l7.46,9.79V9.52h3.46v15.9h-2.99l-7.7-10.12v10.12h-3.46V9.52Z"></path>
    <path class="cls-1" d="M137.65,25.7c-1.11,0-2.23-.21-3.25-.64-1.97-.81-3.51-2.37-4.29-4.34-.4-1.02-.62-2.11-.62-3.2v-.05c-.02-2.16,.81-4.24,2.32-5.81,.73-.76,1.64-1.37,2.61-1.78,1.07-.45,2.2-.66,3.36-.64,.69,0,1.37,.05,2.04,.19,.57,.12,1.14,.28,1.68,.5,.5,.21,.95,.47,1.37,.78s.83,.64,1.18,1l-2.23,2.56c-.57-.52-1.21-.97-1.9-1.33-.69-.33-1.42-.5-2.18-.47-1.26-.02-2.46,.52-3.32,1.45-.4,.47-.73,1-.95,1.59-.24,.62-.33,1.26-.33,1.92v.05c0,.66,.12,1.3,.33,1.92,.21,.59,.55,1.11,.95,1.59,.83,.95,2.04,1.49,3.32,1.47,.81,.02,1.59-.14,2.3-.5,.69-.38,1.3-.83,1.87-1.37l2.2,2.27c-.4,.43-.83,.83-1.28,1.18s-.92,.66-1.45,.9c-.55,.26-1.11,.45-1.71,.57-.69,.12-1.37,.19-2.06,.19Z"></path>
    <path class="cls-1" d="M148.29,9.52h11.97v3.1h-8.53v3.22h7.51v3.1h-7.51v3.34h8.65v3.1h-12.09V9.52Z"></path>
  </g>
</svg>
