<?xml version="1.0" encoding="UTF-8"?>
<svg xmlns="http://www.w3.org/2000/svg" id="_图层_1" data-name="图层 1" viewBox="0 0 171 34">
  <defs>
    <style>
      .cls-1 {
        fill: #aaa;
      }
    </style>
  </defs>
  <path class="cls-1" d="M106.46,25.45V2.32h4.65V25.44h-4.65Z"></path>
  <path class="cls-1" d="M52.28,32.31h-9.96V9.19h9.56c4.65,0,7.36,2.53,7.36,6.5,0,2.57-1.74,4.22-2.94,4.78,1.44,.65,3.28,2.11,3.28,5.2,0,4.31-3.04,6.65-7.29,6.65h0Zm-.77-19.1h-4.55v5.33h4.55c1.97,0,3.08-1.07,3.08-2.66,0-1.59-1.1-2.66-3.07-2.66h0Zm.3,9.38h-4.85v5.68h4.85c2.11,0,3.11-1.3,3.11-2.86,0-1.56-1-2.83-3.11-2.83h0Zm21.94,.23v9.48h-4.61v-9.48l-7.16-13.64h5.05l4.45,9.32,4.38-9.32h5.05l-7.16,13.64Zm20.33,9.48h-9.96V9.19h9.56c4.65,0,7.36,2.53,7.36,6.5,0,2.57-1.74,4.22-2.94,4.78,1.44,.65,3.28,2.11,3.28,5.2,0,4.31-3.04,6.65-7.29,6.65h0Zm-.77-19.1h-4.55v5.33h4.55c1.97,0,3.08-1.07,3.08-2.66,0-1.59-1.11-2.66-3.08-2.66Zm.3,9.38h-4.85v5.68h4.85c2.11,0,3.11-1.3,3.11-2.86s-1-2.83-3.11-2.83Zm32.47-9.38v19.1h-4.65V13.22h-6.22v-4.03h17.09v4.03h-6.22Z"></path>
</svg>
