<?xml version="1.0" encoding="UTF-8"?>
<!-- Generator: Adobe Illustrator 27.0.0, SVG Export Plug-In . SVG Version: 6.00 Build 0)  -->
<svg xmlns="http://www.w3.org/2000/svg" xmlns:xlink="http://www.w3.org/1999/xlink" version="1.1" id="图层_1" x="0px" y="0px" viewBox="0 0 2500 977" style="enable-background:new 0 0 2500 977;" xml:space="preserve">
<style type="text/css">
	.st0{fill:#AAAAAA;}
</style>
<path class="st0" d="M1781.8,714.3V71.8H1911v642.4H1781.8z"></path>
<g>
	<path class="st0" d="M276.8,905.1H0V262.7h265.7c129.1,0,204.4,70.4,204.4,180.5c0,71.3-48.3,117.3-81.8,132.7   c39.9,18,91,58.6,91,144.4C479.3,840.1,394.9,905.1,276.8,905.1L276.8,905.1z M255.5,374.6H129.1v148h126.3   c54.8,0,85.5-29.8,85.5-74C340.9,404.4,310.3,374.6,255.5,374.6L255.5,374.6z M263.8,635.3H129.2v157.9h134.7   c58.5,0,86.4-36.1,86.4-79.4C350.2,670.5,322.4,635.3,263.8,635.3L263.8,635.3z M873.2,641.7v263.4H745V641.7l-198.8-379h140.3   l123.6,259l121.7-259H1072L873.2,641.7z M1438.1,905.1h-276.8V262.7H1427c129.1,0,204.4,70.4,204.4,180.5   c0,71.3-48.3,117.3-81.8,132.7c39.9,18,91,58.6,91,144.4C1640.6,840.1,1556.1,905.1,1438.1,905.1L1438.1,905.1z M1416.8,374.6   h-126.4v148h126.4c54.8,0,85.5-29.8,85.5-74C1502.2,404.4,1471.6,374.6,1416.8,374.6z M1425.1,635.3h-134.7v157.9h134.7   c58.6,0,86.4-36.1,86.4-79.4C1511.5,670.5,1483.6,635.3,1425.1,635.3z M2327.2,374.6v530.6H2198V374.6h-172.8V262.7H2500v111.9   L2327.2,374.6z"></path>
</g>
</svg>
