<?xml version="1.0" encoding="UTF-8"?>
<svg xmlns="http://www.w3.org/2000/svg" id="_图层_1" data-name="图层 1" viewBox="0 0 171 34">
  <defs>
    <style>
      .cls-1 {
        fill: #aaa;
      }
    </style>
  </defs>
  <g id="Layer_2" data-name="Layer 2">
    <g id="Layer_1-2" data-name="Layer 1-2">
      <path class="cls-1" d="M40.6,2.24l-2.75,1.58-7.5,4.33-2.75,1.58v15l2.75,1.58,7.57,4.33,2.75,1.58,2.75-1.58,7.43-4.33,2.75-1.58V9.74l-2.75-1.58-7.5-4.33-2.75-1.58h0Zm-7.5,19.33V12.91l7.5-4.33,7.5,4.33v8.67l-7.5,4.33-7.5-4.33Z"></path>
    </g>
  </g>
  <g>
    <path class="cls-1" d="M65.14,13.77c.58-.35,1.25-.52,2-.52,.58,0,1.06,.05,1.45,.14,.39,.09,.7,.19,.92,.31,.23,.12,.4,.21,.51,.28l.37-2.42c-.23-.05-.49-.11-.79-.19-.29-.08-.66-.15-1.08-.22-.43-.07-.96-.1-1.59-.1-.89,0-1.73,.15-2.52,.44-.78,.29-1.48,.72-2.07,1.29-.6,.57-1.07,1.28-1.4,2.12-.34,.84-.51,1.82-.51,2.93,0,1.35,.26,2.53,.78,3.54,.52,1.01,1.27,1.79,2.25,2.34,.98,.55,2.15,.83,3.53,.83,.53,0,.99-.04,1.39-.12,.4-.08,.75-.17,1.06-.28,.31-.11,.58-.21,.82-.3v-2.3c-.15,.12-.39,.25-.71,.38-.32,.13-.68,.23-1.09,.32-.41,.09-.81,.13-1.21,.13-.85,0-1.58-.2-2.17-.6-.59-.4-1.04-.95-1.35-1.66s-.46-1.52-.46-2.45,.17-1.72,.5-2.38c.33-.66,.79-1.16,1.37-1.51h0Z"></path>
    <path class="cls-1" d="M78.17,14.35c-.44,0-.86,.07-1.28,.2-.41,.13-.8,.29-1.14,.48-.29,.16-.53,.32-.74,.48l.12-1.69v-3.86h-2.71v14.44h2.71v-7.12c.31-.26,.64-.45,1-.56,.36-.11,.67-.17,.92-.18,.56-.02,.95,.12,1.17,.42,.23,.3,.34,.84,.34,1.62v5.83h2.73v-6.14c0-1.37-.25-2.37-.75-3-.5-.63-1.29-.93-2.37-.9h0Z"></path>
    <path class="cls-1" d="M89.78,14.65c-.59-.21-1.34-.32-2.25-.32-.56,0-1.11,.06-1.66,.18-.55,.12-1.04,.26-1.47,.42-.43,.16-.74,.3-.94,.42l.59,1.71c.24-.12,.54-.24,.91-.35,.36-.11,.75-.19,1.15-.26,.41-.06,.8-.1,1.17-.1,.5,0,.88,.08,1.15,.24s.4,.49,.4,.99v.73c-.4,0-.82,.02-1.28,.05s-.92,.1-1.38,.19c-.46,.09-.88,.21-1.27,.37-.56,.24-1.01,.58-1.34,1.01-.33,.43-.49,.95-.49,1.55s.13,1.13,.4,1.59c.26,.46,.63,.81,1.11,1.07,.47,.25,1.02,.38,1.65,.38s1.18-.1,1.65-.31,.83-.43,1.1-.67v.84h2.57v-6.54c0-.9-.14-1.61-.43-2.11-.29-.51-.73-.87-1.31-1.08h0Zm-1.3,7.8c-.17,.08-.36,.15-.57,.21-.22,.06-.43,.09-.65,.09-.42,0-.76-.11-1.03-.34-.27-.23-.4-.58-.4-1.06,0-.37,.09-.64,.27-.82,.18-.18,.39-.32,.62-.43,.17-.07,.37-.13,.62-.19,.25-.06,.5-.1,.77-.13,.27-.03,.51-.04,.72-.04v2.49c-.06,.07-.17,.15-.34,.23h0Z"></path>
    <rect class="cls-1" x="94.24" y="14.5" width="2.71" height="9.89"></rect>
    <path class="cls-1" d="M95.63,9.97c-.3,0-.59,.07-.85,.22-.26,.15-.48,.35-.64,.59-.16,.25-.24,.52-.24,.81,0,.44,.15,.79,.45,1.07,.3,.27,.67,.41,1.11,.41,.47,0,.87-.16,1.21-.47,.34-.32,.51-.7,.51-1.15s-.14-.79-.41-1.06c-.28-.28-.66-.41-1.14-.41h0Z"></path>
    <path class="cls-1" d="M105.59,14.35c-.43,0-.86,.07-1.28,.2-.42,.13-.81,.29-1.16,.48s-.64,.38-.86,.57l-.04-1.11h-2.46v9.89h2.7v-7.12c.19-.16,.41-.29,.64-.4,.23-.11,.45-.19,.68-.25s.42-.09,.6-.09c.59-.02,.98,.12,1.18,.43,.2,.31,.3,.85,.3,1.62v5.83h2.72v-6.21c0-1.43-.24-2.43-.73-3.01-.49-.57-1.24-.85-2.27-.82h0Z"></path>
    <rect class="cls-1" x="111.24" y="9.95" width="2.72" height="14.44"></rect>
    <path class="cls-1" d="M118.15,9.97c-.3,0-.59,.07-.85,.22-.26,.15-.48,.35-.64,.59-.16,.25-.24,.52-.24,.81,0,.44,.15,.79,.45,1.07,.3,.27,.67,.41,1.11,.41,.47,0,.87-.16,1.21-.47,.34-.32,.51-.7,.51-1.15s-.14-.79-.41-1.06c-.28-.28-.66-.41-1.14-.41h0Z"></path>
    <rect class="cls-1" x="116.76" y="14.5" width="2.71" height="9.89"></rect>
    <path class="cls-1" d="M128.11,14.35c-.43,0-.86,.07-1.28,.2-.42,.13-.81,.29-1.16,.48-.35,.19-.64,.38-.86,.57l-.04-1.11h-2.46v9.89h2.7v-7.12c.19-.16,.41-.29,.64-.4,.23-.11,.45-.19,.68-.25s.42-.09,.6-.09c.59-.02,.98,.12,1.18,.43,.2,.31,.3,.85,.3,1.62v5.83h2.72v-6.21c0-1.43-.24-2.43-.73-3.01-.49-.57-1.24-.85-2.27-.82h0Z"></path>
    <polygon class="cls-1" points="140.12 24.39 143.15 24.39 139.22 18.33 142.84 14.49 139.72 14.49 136.33 18.41 136.4 16.33 136.4 9.98 133.75 9.98 133.75 18.51 133.75 24.39 136.4 24.39 136.4 22.63 136.38 21.35 137.45 20.2 140.12 24.39"></polygon>
  </g>
</svg>
