<?xml version="1.0" encoding="UTF-8"?>
<svg xmlns="http://www.w3.org/2000/svg" id="_图层_1" data-name="图层 1" viewBox="0 0 171 34">
  <defs>
    <style>
      .cls-1 {
        fill: #aaa;
      }
    </style>
  </defs>
  <path class="cls-1" d="M35.43,10.38c-6.1,0-10.87,4.63-10.87,10.83s4.65,10.79,10.87,10.79,10.95-4.67,10.95-10.83-4.65-10.79-10.95-10.79Zm.04,17.16c-3.47,0-6.02-2.7-6.02-6.32s2.51-6.36,5.98-6.36,6.06,2.74,6.06,6.36-2.55,6.32-6.02,6.32Zm12.24-12.45h3.03V31.6h4.85V10.78h-7.88v4.31Zm-35.35-.24c2.55,0,4.57,1.57,5.33,3.9h5.13c-.93-4.99-5.05-8.38-10.43-8.38-6.1,0-10.87,4.64-10.87,10.84s4.65,10.79,10.87,10.79c5.25,0,9.45-3.39,10.39-8.42h-5.09c-.73,2.34-2.75,3.95-5.29,3.95-3.51,0-5.98-2.7-5.98-6.32,0-3.66,2.42-6.36,5.94-6.36h0Zm127.46,4.35l-3.55-.52c-1.7-.24-2.91-.81-2.91-2.14,0-1.45,1.58-2.18,3.71-2.18,2.34,0,3.84,1.01,4.16,2.66h4.69c-.52-4.18-3.76-6.64-8.73-6.64s-8.52,2.62-8.52,6.32,2.22,5.6,6.7,6.24l3.55,.52c1.74,.24,2.71,.93,2.71,2.22,0,1.65-1.7,2.34-4.04,2.34-2.87,0-4.49-1.17-4.73-2.94h-4.77c.44,4.06,3.63,6.93,9.45,6.93,5.29,0,8.81-2.42,8.81-6.56,0-3.71-2.55-5.64-6.54-6.24h0ZM53.16,2.2c-1.78,0-3.11,1.29-3.11,3.06s1.33,3.06,3.11,3.06,3.11-1.29,3.11-3.06-1.34-3.06-3.11-3.06Zm71.14,15.71c0-4.51-2.75-7.53-8.56-7.53-5.49,0-8.56,2.78-9.17,7.05h4.81c.24-1.65,1.54-3.02,4.28-3.02,2.47,0,3.67,1.09,3.67,2.42,0,1.73-2.22,2.18-4.97,2.46-3.71,.4-8.32,1.69-8.32,6.52,0,3.75,2.79,6.16,7.23,6.16,3.47,0,5.66-1.45,6.74-3.75,.16,2.06,1.7,3.39,3.84,3.39h2.83v-4.31h-2.38v-9.38h0Zm-4.76,5.23c0,2.78-2.42,4.83-5.37,4.83-1.82,0-3.35-.77-3.35-2.38,0-2.06,2.47-2.62,4.73-2.86,2.18-.2,3.39-.69,4-1.61v2.02Zm-25.73-12.76c-2.71,0-4.97,1.13-6.58,3.02V2h-4.85V31.6h4.77v-2.74c1.62,1.97,3.92,3.14,6.66,3.14,5.82,0,10.22-4.59,10.22-10.79s-4.49-10.83-10.22-10.83h0Zm-.73,17.16c-3.47,0-6.02-2.7-6.02-6.32s2.59-6.36,6.06-6.36,5.98,2.7,5.98,6.36-2.55,6.32-6.02,6.32h0Zm-22.3-17.16c-3.15,0-5.21,1.29-6.42,3.1v-2.7h-4.81V31.6h4.85v-11.32c0-3.18,2.02-5.43,5.01-5.43,2.79,0,4.53,1.97,4.53,4.83v11.92h4.85v-12.27c0-5.24-2.71-8.94-8.01-8.94h0Zm98.69,10.15c0-5.96-4.36-10.14-10.22-10.14-6.22,0-10.79,4.67-10.79,10.83,0,6.48,4.89,10.79,10.87,10.79,5.05,0,9.01-2.98,10.02-7.21h-5.04c-.73,1.85-2.51,2.9-4.89,2.9-3.11,0-5.45-1.93-5.98-5.31h16.04v-1.85h0Zm-15.76-1.61c.77-2.9,2.95-4.31,5.45-4.31,2.75,0,4.85,1.57,5.33,4.31h-10.79Z"></path>
</svg>
