<?xml version="1.0" encoding="UTF-8"?>
<svg xmlns="http://www.w3.org/2000/svg" id="_图层_1" data-name="图层 1" viewBox="0 0 171 34">
  <defs>
    <style>
      .cls-1 {
        fill: #aaa;
      }
    </style>
  </defs>
  <path class="cls-1" d="M65.22,2.32h-30.63c-.19,0-.37,.07-.5,.19-.13,.12-.21,.29-.21,.47V31.65c0,.18,.07,.35,.21,.47,.13,.12,.32,.2,.5,.2h30.63c.19,0,.37-.07,.5-.2,.13-.12,.21-.29,.21-.47V2.98c0-.18-.07-.35-.21-.47-.14-.13-.32-.2-.5-.2h0Zm-9.97,19.33c0,.18-.07,.35-.21,.47-.14,.13-.32,.2-.5,.2h-9.26c-.19,0-.37-.07-.5-.2-.13-.12-.21-.29-.21-.47V12.98c0-.18,.07-.35,.21-.47,.13-.12,.32-.2,.5-.2h9.26c.19,0,.37,.07,.5,.2,.13,.12,.21,.29,.21,.47v8.67Zm74.11-9.33h-9.26c-.39,0-.71,.3-.71,.67v8.67c0,.37,.32,.67,.71,.67h9.26c.39,0,.71-.3,.71-.67V12.98c0-.37-.32-.67-.71-.67h0Zm-10.69-10h-9.26c-.39,0-.71,.3-.71,.67V11.65c0,.37,.32,.67,.71,.67h9.26c.39,0,.71-.3,.71-.67V2.98c0-.37-.32-.67-.71-.67h0Zm21.38,0h-9.26c-.39,0-.71,.3-.71,.67V11.65c0,.37,.32,.67,.71,.67h9.26c.39,0,.71-.3,.71-.67V2.98c0-.37-.32-.67-.71-.67h0Zm-21.38,20h-9.26c-.39,0-.71,.3-.71,.67v8.67c0,.37,.32,.67,.71,.67h9.26c.39,0,.71-.3,.71-.67v-8.67c0-.37-.32-.67-.71-.67h0Zm21.38,0h-9.26c-.39,0-.71,.3-.71,.67v8.67c0,.37,.32,.67,.71,.67h9.26c.39,0,.71-.3,.71-.67v-8.67c0-.37-.32-.67-.71-.67h0ZM102.62,2.32h-9.26c-.39,0-.71,.3-.71,.67V11.65c0,.37,.32,.67,.71,.67h9.26c.39,0,.71-.3,.71-.67V2.98c0-.37-.32-.67-.71-.67h0Zm0,20h-9.26c-.39,0-.71,.3-.71,.67v8.67c0,.37,.32,.67,.71,.67h9.26c.39,0,.71-.3,.71-.67v-8.67c0-.37-.32-.67-.71-.67h0Zm-9.97-9.34c0-.18-.08-.35-.21-.47-.14-.13-.32-.2-.5-.2h-9.97V2.98c0-.18-.07-.35-.21-.47-.14-.13-.32-.2-.5-.2h-9.26c-.19,0-.37,.07-.5,.2-.13,.12-.21,.29-.21,.47V31.63c0,.18,.07,.35,.21,.47,.13,.12,.32,.2,.5,.2h9.26c.19,0,.37-.07,.5-.2,.13-.12,.21-.29,.21-.47v-9.32h9.97c.19,0,.37-.07,.5-.2,.13-.12,.21-.29,.21-.47V12.98Z"></path>
</svg>
