<?xml version="1.0" encoding="UTF-8"?>
<svg xmlns="http://www.w3.org/2000/svg" id="_图层_1" data-name="图层 1" viewBox="0 0 171 34">
  <defs>
    <style>
      .cls-1 {
        fill: #aaa;
      }
    </style>
  </defs>
  <g>
    <path class="cls-1" d="M73.42,28.67c-.96,0-1.86-.07-2.72-.21-.85-.14-1.59-.31-2.21-.5-.62-.2-1.06-.37-1.32-.53l.66-3.45c.34,.2,.8,.41,1.36,.6,.56,.2,1.18,.37,1.86,.5,.68,.13,1.36,.2,2.05,.2,1.11,0,1.93-.17,2.46-.52,.54-.34,.81-.9,.81-1.66,0-.54-.15-.99-.45-1.36-.3-.37-.76-.73-1.4-1.08-.64-.35-1.46-.77-2.47-1.25-.86-.42-1.68-.91-2.44-1.49-.76-.58-1.38-1.26-1.85-2.06-.47-.8-.71-1.73-.71-2.8,0-.97,.19-1.8,.56-2.5s.89-1.28,1.55-1.73c.66-.45,1.42-.78,2.29-1,.87-.21,1.8-.32,2.79-.32,1.43,0,2.61,.13,3.52,.4,.92,.27,1.56,.52,1.92,.75l-.74,3.32c-.44-.32-1.04-.6-1.81-.86-.77-.26-1.65-.38-2.65-.38-.66,0-1.23,.08-1.72,.24s-.87,.39-1.13,.69c-.27,.3-.4,.67-.4,1.11,0,.52,.13,.96,.38,1.33,.26,.37,.66,.72,1.22,1.06,.56,.34,1.28,.73,2.17,1.16,.81,.38,1.55,.78,2.24,1.19,.69,.41,1.29,.87,1.81,1.36,.52,.49,.92,1.05,1.21,1.69,.29,.63,.43,1.36,.43,2.17,0,1.24-.29,2.31-.88,3.2-.59,.89-1.42,1.56-2.51,2.03-1.09,.47-2.39,.7-3.89,.7h0Z"></path>
    <path class="cls-1" d="M90.2,28.67c-1.36,0-2.51-.22-3.45-.66-.95-.44-1.71-1.05-2.29-1.82s-1-1.65-1.26-2.65c-.26-1-.39-2.05-.38-3.17,.03-1.65,.37-3.05,1.04-4.18,.66-1.13,1.57-1.99,2.72-2.58,1.15-.58,2.45-.88,3.91-.88,1.82,0,3.27,.38,4.36,1.14,1.09,.76,1.87,1.77,2.34,3.03,.47,1.26,.7,2.63,.67,4.1-.02,1.66-.36,3.06-1.02,4.2-.66,1.14-1.56,2-2.7,2.58-1.14,.58-2.45,.88-3.93,.88h0Zm.11-2.97c1.11,0,1.91-.4,2.41-1.24s.75-2.05,.75-3.63c0-.94-.1-1.79-.31-2.56-.2-.77-.53-1.39-.98-1.85-.45-.46-1.05-.7-1.79-.71-1.11,0-1.92,.4-2.42,1.22-.5,.82-.75,2.01-.75,3.56,0,.95,.1,1.82,.31,2.61,.2,.79,.53,1.43,.98,1.9,.45,.47,1.05,.71,1.8,.71h0Z"></path>
    <path class="cls-1" d="M101.04,28.45V5.81h4.26V28.45h-4.26Z"></path>
    <path class="cls-1" d="M113.6,28.67c-.98,0-1.85-.2-2.59-.6-.74-.4-1.32-.96-1.73-1.67-.41-.71-.62-1.55-.62-2.49s.26-1.76,.77-2.44c.52-.68,1.21-1.21,2.1-1.59,.6-.25,1.27-.45,1.98-.59,.72-.14,1.44-.24,2.16-.29,.72-.06,1.39-.08,2.01-.08l.71,.88-.71,1.37c-.33,0-.71,.02-1.13,.07-.42,.05-.82,.11-1.2,.2-.39,.09-.71,.19-.97,.3-.36,.17-.68,.39-.97,.67s-.43,.7-.43,1.28c0,.75,.21,1.31,.63,1.66,.42,.36,.96,.54,1.62,.54,.34,0,.69-.05,1.02-.14,.34-.09,.64-.2,.9-.33,.26-.12,.44-.24,.53-.35l.74,.88-.51,1.2c-.42,.37-.99,.72-1.72,1.05-.73,.33-1.59,.49-2.58,.49h0Zm8.33-.22h-4.02v-2.31h-.22v-8.36c0-.79-.21-1.31-.63-1.55-.42-.25-1.02-.37-1.8-.37-.59,0-1.2,.05-1.83,.15-.64,.1-1.24,.24-1.8,.4-.57,.17-1.04,.35-1.42,.54l-.92-2.68c.32-.19,.81-.4,1.48-.65,.67-.25,1.43-.47,2.3-.66,.86-.19,1.73-.28,2.6-.28,1.43,0,2.61,.17,3.53,.5,.92,.33,1.61,.9,2.06,1.7,.45,.8,.67,1.9,.67,3.32v10.25h0Z"></path>
    <path class="cls-1" d="M126.1,28.45V12.94h3.86l.07,1.74c.35-.3,.8-.6,1.35-.9,.55-.3,1.15-.56,1.82-.76,.66-.2,1.34-.31,2.01-.32,1.62-.04,2.8,.39,3.57,1.29,.76,.9,1.14,2.47,1.14,4.71v9.74h-4.26v-9.14c0-1.21-.16-2.05-.47-2.54-.32-.48-.93-.71-1.85-.67-.28,0-.59,.06-.94,.15-.35,.09-.7,.22-1.06,.39-.36,.17-.69,.38-1,.63v11.17h-4.23Z"></path>
    <path class="cls-1" d="M147.65,28.67c-.98,0-1.85-.2-2.59-.6-.74-.4-1.32-.96-1.73-1.67-.41-.71-.62-1.55-.62-2.49s.26-1.76,.77-2.44c.52-.68,1.21-1.21,2.1-1.59,.6-.25,1.27-.45,1.98-.59,.72-.14,1.44-.24,2.16-.29,.72-.06,1.39-.08,2.01-.08l.71,.88-.71,1.37c-.33,0-.71,.02-1.13,.07-.42,.05-.82,.11-1.2,.2-.39,.09-.71,.19-.97,.3-.36,.17-.68,.39-.97,.67-.28,.28-.43,.7-.43,1.28,0,.75,.21,1.31,.63,1.66,.42,.36,.96,.54,1.62,.54,.34,0,.69-.05,1.02-.14,.34-.09,.64-.2,.9-.33,.26-.12,.44-.24,.53-.35l.74,.88-.52,1.2c-.42,.37-.99,.72-1.72,1.05-.73,.33-1.59,.49-2.58,.49h0Zm8.33-.22h-4.02v-2.31h-.22v-8.36c0-.79-.21-1.31-.63-1.55-.42-.25-1.02-.37-1.8-.37-.59,0-1.2,.05-1.83,.15-.64,.1-1.24,.24-1.8,.4-.57,.17-1.04,.35-1.42,.54l-.92-2.68c.32-.19,.81-.4,1.48-.65,.67-.25,1.43-.47,2.3-.66s1.73-.28,2.61-.28c1.43,0,2.61,.17,3.53,.5,.92,.33,1.61,.9,2.06,1.7,.45,.8,.67,1.9,.67,3.32v10.25h0Z"></path>
  </g>
  <g>
    <path class="cls-1" d="M24.57,25.14c.23-.23,.55-.37,.89-.37h30.55c.56,0,.84,.67,.44,1.07l-6.03,6.03c-.23,.23-.55,.37-.89,.37H18.98c-.56,0-.84-.67-.44-1.07l6.03-6.03h0Z"></path>
    <path class="cls-1" d="M24.57,2.61c.24-.23,.56-.37,.89-.37h30.55c.56,0,.84,.67,.44,1.07l-6.03,6.03c-.23,.23-.55,.37-.89,.37H18.98c-.56,0-.84-.67-.44-1.07l6.03-6.03h0Z"></path>
    <path class="cls-1" d="M50.42,13.8c-.23-.23-.55-.37-.89-.37H18.98c-.56,0-.84,.67-.44,1.07l6.03,6.03c.23,.23,.55,.37,.89,.37h30.55c.56,0,.84-.67,.44-1.07l-6.03-6.03Z"></path>
  </g>
</svg>
