<svg xmlns="http://www.w3.org/2000/svg" width="627.772" height="359.066" viewBox="0 0 627.772 359.066"><g transform="translate(-242.034 -400.761)"><path d="M263.83,1554.776c-.278.078-.634.156-1.081.235C263.11,1554.925,263.466,1554.847,263.83,1554.776Z" transform="translate(-20.715 -809.986)" fill="#95c38b"/><g transform="translate(412.567 433.152)"><path d="M1233.751,985.343l-17.089,203.186s-1.791,12.317,7.371,12.338c15.064.036,74.976,0,74.976,0s-11.337-2.564-11.2-8.333c.162-6.8,19.973-209.114,19.973-209.114Z" transform="translate(-1048.192 -874.777)" fill="#2f67c1"/><path d="M1312.806,1190.49c-2.963.009-60.186.188-74.855,0-6.393-.08-7.514-5.684-7.567-9.312a18.2,18.2,0,0,1,.194-3.025l.445-5.281,1.132-13.46,1-11.891,1.286-15.281,1.083-12.9,12.142-144.377,74.032-1.922s-8.344,84.668-14.245,146.3c-.659,6.867-1.286,13.452-1.865,19.6q-.283,2.943-.544,5.749c-.548,5.831-1.047,11.186-1.483,15.914-.23,2.492-.441,4.807-.632,6.929-.753,8.312-1.195,13.619-1.2,14.628a8.551,8.551,0,0,0,.144,1.645C1303.085,1190.279,1311.694,1190.49,1312.806,1190.49Z" transform="translate(-1057.127 -868.087)" fill="#3672d1"/><path d="M758.975,677.629l41.624,167.2,5.7,22.9L825.685,945.6h360.172L1114.4,677.629Z" transform="translate(-753.206 -677.629)" fill="#3672d1"/><path d="M748.5,677.629l-5.769,1.923,64.81,271.864,7.67-5.816Z" transform="translate(-742.736 -677.629)" fill="#3672d1"/><path d="M925.153,1437.685h357.955l9.885-5.816H932.823Z" transform="translate(-860.343 -1163.898)" fill="#2f67c1"/><rect width="77.503" height="3.683" transform="translate(268.016 326.168) rotate(180)" fill="#3672d1"/><path d="M1168.408,896.222l-58.442-215.05H759.856l-.881-3.543H1114.4l58.247,218.115Z" transform="translate(-753.206 -677.629)" fill="#f1a34f"/><path d="M1308.66,1448.236l-.4,2.816-72.887,14.725,1-11.892.476-5.649Z" transform="translate(-1060.346 -1174.45)" fill="#3672d1"/><path d="M1312.81,1543.413c-2.963.009-60.186.188-74.855,0-6.394-.08-7.514-5.684-7.567-9.312l72.543-13.648c-.753,8.312-1.194,13.619-1.2,14.628a8.53,8.53,0,0,0,.144,1.645C1303.089,1543.2,1311.7,1543.413,1312.81,1543.413Z" transform="translate(-1057.131 -1221.009)" fill="#2f67c1" opacity="0.4"/><path d="M1069.778,1236.3,911.56,1290.553l-19.387-77.876Z" transform="translate(-839.08 -1022.582)" fill="#2f67c1"/><path d="M758.973,677.629H1114.4l57.668,215.364H812.588Z" transform="translate(-753.204 -677.629)" fill="#699dee"/><ellipse cx="8.679" cy="10.538" rx="8.679" ry="10.538" transform="translate(238.915 241.934) rotate(-47.777)" fill="#fff"/><path d="M1182.022,904.594H849.235L811.547,754.459l-2.889-11.513-2.466-9.82-5.78-23.027H1128.4l6.347,23.027,2.707,9.82,3.174,11.513Z" transform="translate(-779.921 -698.563)" fill="#e4edf9"/><path d="M1134.751,733.125H806.193l-5.78-23.027H1128.4Z" transform="translate(-779.921 -698.563)" fill="#afcdfb"/><g transform="translate(33.971 19.064)"><path d="M838.442,734.166a2.175,2.175,0,0,1,2.161-2.879,3.933,3.933,0,0,1,3.6,2.879,2.175,2.175,0,0,1-2.161,2.879A3.932,3.932,0,0,1,838.442,734.166Z" transform="translate(-838.353 -731.287)" fill="#e9f3fe"/><path d="M865.363,734.166a2.175,2.175,0,0,1,2.161-2.879,3.932,3.932,0,0,1,3.6,2.879,2.175,2.175,0,0,1-2.161,2.879A3.932,3.932,0,0,1,865.363,734.166Z" transform="translate(-855.709 -731.287)" fill="#e9f3fe"/><path d="M894.351,734.166a2.175,2.175,0,0,1,2.161-2.879,3.932,3.932,0,0,1,3.6,2.879,2.175,2.175,0,0,1-2.161,2.879A3.932,3.932,0,0,1,894.351,734.166Z" transform="translate(-874.398 -731.287)" fill="#e9f3fe"/></g><path d="M1152.774,952.9H906.269L868.755,805.688h243.028Z" transform="translate(-823.983 -760.19)" fill="#cae0ff"/><path d="M1637.973,839.941H1582.1l-10.215-34.254h56.548Z" transform="translate(-1277.301 -760.19)" fill="#d2e3fc"/><path d="M1273.253,837.1h-31.966l-1.316-4.929h31.966Z" transform="translate(-1063.311 -777.263)" fill="#1c468a"/><path d="M1395.886,837.1h-52.3l-1.315-4.929h52.3Z" transform="translate(-1129.267 -777.263)" fill="#78acea"/><path d="M1243.508,874.474h-56.691l-1.315-4.928h56.691Z" transform="translate(-1028.193 -801.36)" fill="#78acea"/><path d="M1390.121,874.474h-29.385l-1.316-4.928h29.385Z" transform="translate(-1140.322 -801.36)" fill="#f1a34f"/><path d="M1300.4,938.823h-31.967l-1.315-4.928h31.966Z" transform="translate(-1080.815 -842.847)" fill="#699dee"/><path d="M1423.038,938.823h-52.3l-1.316-4.928h52.3Z" transform="translate(-1146.772 -842.847)" fill="#78acea"/><path d="M1270.659,976.2h-56.691l-1.315-4.928h56.691Z" transform="translate(-1045.698 -866.944)" fill="#fff"/><path d="M1417.273,976.2h-29.384l-1.315-4.928h29.384Z" transform="translate(-1157.827 -866.944)" fill="#fff"/><path d="M1080.662,1034.053H972.511l-1.315-4.928h108.152Z" transform="translate(-890.027 -904.243)" fill="#1c468a"/><path d="M1328.342,1034.053h-31.966l-1.316-4.928h31.966Z" transform="translate(-1098.827 -904.243)" fill="#699dee"/><path d="M1450.976,1034.053h-52.3l-1.315-4.928h52.3Z" transform="translate(-1164.784 -904.243)" fill="#78acea"/><path d="M1014.453,1071.429H982.486l-1.315-4.929h31.966Z" transform="translate(-896.458 -928.34)" fill="#fff"/><path d="M1298.6,1071.429h-56.691l-1.316-4.929h56.691Z" transform="translate(-1063.71 -928.34)" fill="#f1a34f"/><path d="M1137.086,1071.429h-52.3l-1.316-4.929h52.3Z" transform="translate(-962.415 -928.34)" fill="#78acea"/><path d="M1445.211,1071.429h-29.384l-1.316-4.929H1443.9Z" transform="translate(-1175.839 -928.34)" fill="#78acea"/><path d="M1115.22,1137.237H1007.068l-1.315-4.928H1113.9Z" transform="translate(-912.307 -970.767)" fill="#1c468a"/><path d="M1362.9,1137.237h-31.966l-1.315-4.928h31.966Z" transform="translate(-1121.108 -970.767)" fill="#699dee"/><path d="M1049.011,1174.614h-31.966l-1.315-4.928H1047.7Z" transform="translate(-918.739 -994.865)" fill="#fff"/><path d="M1333.156,1174.614h-56.691l-1.315-4.928h56.691Z" transform="translate(-1085.99 -994.865)" fill="#f1a34f"/><path d="M1171.645,1174.614h-52.3l-1.315-4.928h52.3Z" transform="translate(-984.695 -994.865)" fill="#78acea"/><path d="M1479.77,1174.614h-29.385l-1.315-4.928h29.385Z" transform="translate(-1198.119 -994.865)" fill="#78acea"/><g transform="translate(307.725 88.018)"><path d="M1634,927.875l-24.587.076-.544-2.233,24.587-.076Z" transform="translate(-1608.868 -925.544)" fill="#78acea"/><path d="M1698.337,927.762l-9.245.028-.544-2.233,9.245-.028Z" transform="translate(-1660.238 -925.472)" fill="#78acea"/><path d="M1738.207,927.6l-16.34.05-.544-2.233,16.34-.05Z" transform="translate(-1681.369 -925.367)" fill="#78acea"/><path d="M1626.766,943.863l-13.48.042-.544-2.233,13.479-.042Z" transform="translate(-1611.366 -935.852)" fill="#78acea"/><path d="M1674.958,943.693l-17.407.054-.544-2.233,17.407-.054Z" transform="translate(-1639.903 -935.742)" fill="#78acea"/><path d="M1735.53,943.492l-19.95.062-.544-2.233,19.95-.061Z" transform="translate(-1677.315 -935.612)" fill="#78acea"/></g><g transform="translate(310.665 100.081)"><path d="M1642.276,961.829l-24.587.076-.544-2.233,24.587-.076Z" transform="translate(-1617.145 -959.499)" fill="#78acea"/><path d="M1706.613,961.716l-9.245.028-.544-2.233,9.245-.029Z" transform="translate(-1668.515 -959.426)" fill="#78acea"/><path d="M1746.483,961.554l-16.339.051-.544-2.233,16.339-.05Z" transform="translate(-1689.646 -959.321)" fill="#78acea"/><path d="M1635.043,977.817l-13.48.042-.544-2.233,13.479-.042Z" transform="translate(-1619.642 -969.806)" fill="#78acea"/><path d="M1683.233,977.647l-17.407.054-.545-2.233,17.408-.054Z" transform="translate(-1648.179 -969.696)" fill="#78acea"/><path d="M1743.807,977.446l-19.95.062-.544-2.233,19.95-.061Z" transform="translate(-1685.593 -969.567)" fill="#78acea"/></g><g transform="translate(301.381 48.849)"><path d="M1606.147,816.631l-14.806.046-.328-1.345,14.806-.046Z" transform="translate(-1591.014 -815.228)" fill="#fff"/><path d="M1644.89,816.563l-5.567.017-.328-1.345,5.568-.017Z" transform="translate(-1621.948 -815.184)" fill="#fff"/><path d="M1668.9,816.465l-9.84.03-.328-1.345,9.84-.03Z" transform="translate(-1634.673 -815.121)" fill="#fff"/><path d="M1601.791,826.259l-8.117.025-.328-1.344,8.118-.025Z" transform="translate(-1592.517 -821.435)" fill="#fff"/><path d="M1630.812,826.156l-10.483.032-.328-1.345,10.483-.032Z" transform="translate(-1609.702 -821.369)" fill="#fff"/><path d="M1667.288,826.035l-12.014.037-.328-1.345,12.014-.037Z" transform="translate(-1632.232 -821.29)" fill="#fff"/></g><g transform="translate(303.152 56.114)"><path d="M1611.131,837.078l-14.806.046-.328-1.345,14.806-.046Z" transform="translate(-1595.997 -835.675)" fill="#fff"/><path d="M1649.874,837.01l-5.568.017-.328-1.345,5.568-.017Z" transform="translate(-1626.932 -835.631)" fill="#fff"/><path d="M1673.884,836.913l-9.839.03-.328-1.345,9.84-.03Z" transform="translate(-1639.657 -835.568)" fill="#fff"/><path d="M1606.775,846.706l-8.117.025-.328-1.345,8.117-.025Z" transform="translate(-1597.501 -841.882)" fill="#fff"/><path d="M1635.8,846.6l-10.483.032-.328-1.345,10.483-.032Z" transform="translate(-1614.686 -841.816)" fill="#fff"/><path d="M1672.272,846.482l-12.013.037-.328-1.345,12.013-.037Z" transform="translate(-1637.216 -841.738)" fill="#fff"/></g><g transform="translate(315.689 120.693)"><path d="M1656.417,1019.844l-24.587.076-.544-2.233,24.587-.076Z" transform="translate(-1631.285 -1017.514)" fill="#78acea"/><path d="M1720.754,1019.732l-9.245.029-.545-2.233,9.246-.028Z" transform="translate(-1682.655 -1017.441)" fill="#78acea"/><path d="M1760.625,1019.569l-16.34.05-.544-2.233,16.34-.051Z" transform="translate(-1703.787 -1017.336)" fill="#78acea"/><path d="M1649.183,1035.833l-13.479.042-.544-2.233,13.479-.042Z" transform="translate(-1633.783 -1027.821)" fill="#78acea"/><path d="M1697.375,1035.662l-17.408.054-.544-2.233,17.408-.054Z" transform="translate(-1662.32 -1027.711)" fill="#78acea"/><path d="M1757.947,1035.461l-19.95.062-.544-2.233,19.95-.061Z" transform="translate(-1699.733 -1027.582)" fill="#78acea"/></g><g transform="translate(320.613 140.895)"><path d="M1670.277,1076.706l-24.587.076-.544-2.233,24.587-.076Z" transform="translate(-1645.146 -1074.375)" fill="#78acea"/><path d="M1734.614,1076.592l-9.245.028-.544-2.233,9.245-.028Z" transform="translate(-1696.516 -1074.302)" fill="#78acea"/><path d="M1774.484,1076.43l-16.34.05-.544-2.233,16.34-.05Z" transform="translate(-1717.646 -1074.197)" fill="#78acea"/><path d="M1663.043,1092.694l-13.479.041-.544-2.233,13.479-.041Z" transform="translate(-1647.643 -1084.683)" fill="#78acea"/><path d="M1711.235,1092.523l-17.408.054-.544-2.233,17.408-.054Z" transform="translate(-1676.181 -1084.572)" fill="#78acea"/><path d="M1771.807,1092.322l-19.949.061-.545-2.233,19.95-.062Z" transform="translate(-1713.593 -1084.443)" fill="#78acea"/></g><g transform="translate(325.05 159.096)"><path d="M1682.764,1127.934l-24.587.076-.544-2.233,24.587-.076Z" transform="translate(-1657.633 -1125.604)" fill="#78acea"/><path d="M1747.1,1127.822l-9.245.029-.544-2.233,9.245-.029Z" transform="translate(-1709.002 -1125.531)" fill="#78acea"/><path d="M1786.971,1127.659l-16.34.05-.544-2.233,16.34-.05Z" transform="translate(-1730.134 -1125.426)" fill="#78acea"/><path d="M1675.53,1143.922l-13.48.042-.544-2.233,13.479-.042Z" transform="translate(-1660.13 -1135.911)" fill="#78acea"/><path d="M1723.722,1143.752l-17.408.054-.544-2.233,17.407-.054Z" transform="translate(-1688.667 -1135.801)" fill="#78acea"/><path d="M1784.294,1143.551l-19.95.061-.544-2.232,19.95-.062Z" transform="translate(-1726.08 -1135.672)" fill="#78acea"/></g><g transform="translate(352.207 174.167)"><path d="M1743.628,1182.176a10.351,10.351,0,0,1-9.258-7.166c-1.153-3.952,1.122-7.166,5.074-7.166a10.35,10.35,0,0,1,9.258,7.166C1749.855,1178.961,1747.579,1182.176,1743.628,1182.176Zm-3.8-13.024c-3.23,0-5.09,2.628-4.148,5.858a8.46,8.46,0,0,0,7.568,5.857c3.229,0,5.089-2.627,4.147-5.857A8.46,8.46,0,0,0,1739.826,1169.152Z" transform="translate(-1734.07 -1167.844)" fill="#a8d29f"/><g transform="translate(2.993 4.207)"><path d="M1747.886,1186.289a1.491,1.491,0,0,1-.8-.334l-4.021-3.22a1.177,1.177,0,0,1-.416-1.542,1.1,1.1,0,0,1,1.552.034l2.84,2.275,1.457-3.367c.211-.488.861-.6,1.452-.244a1.324,1.324,0,0,1,.688,1.523l-1.915,4.426a.764.764,0,0,1-.678.448A1.23,1.23,0,0,1,1747.886,1186.289Z" transform="translate(-1742.494 -1179.686)" fill="#a8d29f"/></g><g transform="translate(19.782)"><path d="M1799.306,1182.176a10.351,10.351,0,0,1-9.258-7.166c-1.153-3.952,1.123-7.166,5.074-7.166a10.35,10.35,0,0,1,9.258,7.166C1805.533,1178.961,1803.257,1182.176,1799.306,1182.176Zm-3.8-13.024c-3.23,0-5.091,2.628-4.148,5.858a8.461,8.461,0,0,0,7.568,5.857c3.229,0,5.09-2.627,4.147-5.857A8.46,8.46,0,0,0,1795.5,1169.152Z" transform="translate(-1789.748 -1167.844)" fill="#f1a34f"/><g transform="translate(5.568 3.267)"><path d="M1807.66,1182.11h0a1.468,1.468,0,0,1-1.31-1.014l-.889-3.044a.735.735,0,0,1,.718-1.013h0a1.467,1.467,0,0,1,1.309,1.013l.888,3.044A.735.735,0,0,1,1807.66,1182.11Z" transform="translate(-1805.419 -1177.039)" fill="#f1a34f"/><path d="M1811.412,1194.757h-.219a1.308,1.308,0,0,1-1.167-.9h0a.656.656,0,0,1,.64-.9h.219a1.308,1.308,0,0,1,1.168.9h0A.656.656,0,0,1,1811.412,1194.757Z" transform="translate(-1808.364 -1187.296)" fill="#f1a34f"/></g></g></g><g transform="translate(311.596 68.594)"><g transform="translate(22.886)"><path d="M1689.421,878.555a5.675,5.675,0,0,1-5.076-3.929,2.847,2.847,0,0,1,2.782-3.929,5.675,5.675,0,0,1,5.076,3.929A2.847,2.847,0,0,1,1689.421,878.555Zm-2.084-7.14a2.327,2.327,0,0,0-2.274,3.211,4.638,4.638,0,0,0,4.149,3.211,2.327,2.327,0,0,0,2.274-3.211A4.637,4.637,0,0,0,1687.336,871.415Z" transform="translate(-1684.18 -870.697)" fill="#a8d29f"/><g transform="translate(1.641 2.307)"><path d="M1691.754,880.811a.816.816,0,0,1-.44-.183l-2.2-1.766a.646.646,0,0,1-.228-.845.6.6,0,0,1,.851.019l1.557,1.248.8-1.846c.115-.267.472-.327.8-.134a.726.726,0,0,1,.377.835l-1.05,2.426a.419.419,0,0,1-.372.245A.634.634,0,0,1,1691.754,880.811Z" transform="translate(-1688.798 -877.19)" fill="#a8d29f"/></g></g><g transform="translate(11.644)"><path d="M1657.779,878.555a5.675,5.675,0,0,1-5.076-3.929,2.847,2.847,0,0,1,2.782-3.929,5.675,5.675,0,0,1,5.076,3.929A2.847,2.847,0,0,1,1657.779,878.555Zm-2.084-7.14a2.327,2.327,0,0,0-2.274,3.211,4.638,4.638,0,0,0,4.149,3.211,2.327,2.327,0,0,0,2.274-3.211A4.638,4.638,0,0,0,1655.7,871.415Z" transform="translate(-1652.539 -870.697)" fill="#a8d29f"/><g transform="translate(1.641 2.307)"><path d="M1660.114,880.811a.817.817,0,0,1-.441-.183l-2.2-1.766a.645.645,0,0,1-.228-.845.6.6,0,0,1,.85.019l1.558,1.248.8-1.846c.116-.267.472-.327.8-.134a.727.727,0,0,1,.377.835l-1.05,2.426a.419.419,0,0,1-.372.245A.636.636,0,0,1,1660.114,880.811Z" transform="translate(-1657.157 -877.19)" fill="#a8d29f"/></g></g><path d="M1625.005,878.555a5.675,5.675,0,0,1-5.076-3.929,2.847,2.847,0,0,1,2.782-3.929,5.675,5.675,0,0,1,5.076,3.929A2.847,2.847,0,0,1,1625.005,878.555Zm-2.084-7.14a2.327,2.327,0,0,0-2.274,3.211,4.638,4.638,0,0,0,4.149,3.211,2.327,2.327,0,0,0,2.274-3.211A4.638,4.638,0,0,0,1622.921,871.415Z" transform="translate(-1619.765 -870.697)" fill="#a8d29f"/><g transform="translate(1.641 2.307)"><path d="M1627.34,880.811a.816.816,0,0,1-.441-.183l-2.2-1.766a.645.645,0,0,1-.228-.845.6.6,0,0,1,.851.019l1.557,1.248.8-1.846c.115-.267.472-.327.8-.134a.726.726,0,0,1,.377.835l-1.05,2.426a.419.419,0,0,1-.372.245A.628.628,0,0,1,1627.34,880.811Z" transform="translate(-1624.383 -877.19)" fill="#a8d29f"/></g><g transform="translate(33.731)"><path d="M1719.946,878.555a5.675,5.675,0,0,1-5.075-3.929,2.847,2.847,0,0,1,2.782-3.929,5.674,5.674,0,0,1,5.075,3.929A2.847,2.847,0,0,1,1719.946,878.555Zm-2.084-7.14a2.327,2.327,0,0,0-2.274,3.211,4.639,4.639,0,0,0,4.149,3.211,2.327,2.327,0,0,0,2.274-3.211A4.638,4.638,0,0,0,1717.862,871.415Z" transform="translate(-1714.706 -870.697)" fill="#f1a34f"/><g transform="translate(3.053 1.791)"><path d="M1724.527,878.52h0a.805.805,0,0,1-.718-.556l-.487-1.669a.4.4,0,0,1,.394-.556h0a.8.8,0,0,1,.718.556l.488,1.669A.4.4,0,0,1,1724.527,878.52Z" transform="translate(-1723.299 -875.739)" fill="#f1a34f"/><path d="M1726.584,885.453h-.12a.719.719,0,0,1-.641-.5h0a.36.36,0,0,1,.352-.5h.12a.718.718,0,0,1,.64.5h0A.36.36,0,0,1,1726.584,885.453Z" transform="translate(-1724.913 -881.363)" fill="#f1a34f"/></g></g></g></g><g transform="translate(298.261 519.449)"><g transform="translate(35.299 40.939)"><path d="M658.963,1199.137s5.923,1.521,9.687.387,10.245.728,11.288,2.1.66,1.918-1.2,2.392-8.459,3.288-12.795,1.659a34.551,34.551,0,0,0-9.99-1.688Z" transform="translate(-607.778 -1141.089)" fill="#e49963"/><path d="M520.36,1042.354s6.653,47.286,17.67,51.522c5.436,2.089,29.46,6.827,36.566,7.3,0,0,1.741-1.412,1.317-7.161,0,0-25.17-9.241-28.746-14.266-5.322-7.479,3.3-30.554-3.374-37.578S525.869,1032.13,520.36,1042.354Z" transform="translate(-520.36 -1035.752)" fill="#4a75cb"/></g><rect width="9.201" height="80.523" rx="4.6" transform="translate(45.35 235.023) rotate(180)" fill="#2b478b"/><path d="M455.785,1577.412c2.976-6.16,14.558-10.754,28.393-10.754s25.417,4.594,28.393,10.754Z" transform="translate(-443.428 -1337.095)" fill="#2b478b"/><path d="M1.622,0H41.634a1.622,1.622,0,0,1,1.622,1.622v0a1.623,1.623,0,0,1-1.623,1.623H1.622A1.622,1.622,0,0,1,0,1.623v0A1.622,1.622,0,0,1,1.622,0Z" transform="translate(62.378 219.428) rotate(180)" fill="#2b478b"/><path d="M511.257,1284.351a82.909,82.909,0,0,0,6.5,9.3c7.15,9.027,14.934,16.47,16.29,23.506a31.929,31.929,0,0,0,1.257,4.5c.567,1.612,1.266,3.307,2.074,5.058a155.815,155.815,0,0,0,12.1,20.69c7.832,11.605,15.2,21.29,15.2,21.29l13.506-.576c-.541-1.354-6.432-17.378-14.312-36.961-3.2-7.949-6.6-16.405-9.886-24.56q-.656-1.633-1.308-3.248c-1-2.5-1.991-4.952-2.956-7.344-7.4-18.388-13.293-33.03-13.293-33.03s-29.574-11.2-32.645-3.944C501.251,1265.02,503.314,1270.884,511.257,1284.351Z" transform="translate(-473.715 -1137.188)" fill="#163560"/><path d="M678.219,1558.717s.691,11.145,2.847,11.3c.287.022,10.937.022,10.937.022l13.595-.079s-.089-3.276-4.063-3.968-10.625-3.485-13.033-8.737C685.97,1551.733,678.219,1558.717,678.219,1558.717Z" transform="translate(-586.835 -1329.664)" fill="#163560"/><path d="M574.685,1475.6s-9.394,6.037-8.483,8c.121.261,5.313,9.559,5.313,9.559l6.7,11.831s2.817-1.674,1.484-5.481-2.136-10.977,1.276-15.639C584.561,1478.968,574.685,1475.6,574.685,1475.6Z" transform="translate(-514.576 -1278.392)" fill="#163560"/><path d="M546.95,1260.543s36.6,22.791,40.747,38.33-49.38,48.689-49.38,48.689-5.87-5.179-6.906-8.978c0,0,24.194-28.986,29.442-35.483,3.223-3.99-47.656-13.814-53.872-23.483s-3.991-17.8-3.991-17.8Z" transform="translate(-473.612 -1139.739)" fill="#1c468a"/><rect width="81.499" height="20.72" rx="7.776" transform="translate(81.499 170.884) rotate(180)" fill="#3672d1"/><path d="M545.025,996.946a20.952,20.952,0,0,1,5.655,5.125c-8.893,2.3-23.636-5.94-23.636-5.94a21.813,21.813,0,0,0,7.845-12.3q.161-.639.291-1.311a26.7,26.7,0,0,0,.482-4.628l4.085,3.659,6.793,6.086a58.38,58.38,0,0,1-1,6.869Q545.315,995.645,545.025,996.946Z" transform="translate(-489.37 -957.511)" fill="#e49963"/><path d="M500.107,1065.639c1.273,17.133-.4,43.19,1.043,47.7,1.247,3.894,15.457,1.579,21.129.279,2.1-.48,4.643-1.168,7.269-1.981,7.326-2.268,15.308-5.507,16.164-7.912a2.007,2.007,0,0,0,.079-.276,2.2,2.2,0,0,0-.015-1.008c-.286-1.225-1.386-2.552-1.515-5.587-.145-3.388-.123-7.378-.25-11.669-.006-.483-.013-1.01-.066-1.491l0-.176c0-.092,0-.182-.007-.274-.123-4.785-.373-9.816-.663-14.805-.185-3.134-.4-6.237-.643-9.21-.639-7.674-1.5-14.5-2.64-18.814-1.862-7.034-5.969-11.621-9.706-14.983l-2.7-2.319a15.633,15.633,0,0,1-9.809-1.307c-3.491-1.658-4.7-2.846-5.305-2.4C504.4,1025.632,498.6,1044.695,500.107,1065.639Z" transform="translate(-471.85 -984.216)" fill="#739af0"/><path d="M559.21,1204.878c7.326-2.268,15.308-5.507,16.164-7.912a2.015,2.015,0,0,0,.079-.276c0-.336-.009-.672-.015-1.008-.286-1.225-1.386-2.551-1.515-5.586-.145-3.388-.123-7.378-.251-11.669-.006-.483-.013-1.01-.066-1.491l0-.176c0-.092,0-.182-.007-.274l-27.671-12.55S544.332,1186.237,559.21,1204.878Z" transform="translate(-501.512 -1077.455)" fill="#4a75cb"/><path d="M560.033,994.28a58.4,58.4,0,0,1-1,6.869c-6.634-2.144-9.643-8.135-10.648-10.676-.286-.718-.409-1.162-.409-1.162l.7-.149,4.567-.968Z" transform="translate(-502.863 -964.152)" fill="#d68d5d"/><path d="M559.665,961.169s-14.574,1.644-15.457-7.448-3.36-15,5.907-16.436,11.415,1.859,12.448,4.822S563.433,960.507,559.665,961.169Z" transform="translate(-499.809 -931.107)" fill="#e49963"/><path d="M537.331,943.765s.924-12.068,14.19-13.318c9.086-.856,4.02-8.676,3.052-9.924,0,0-6.961.954-14.1,2.133C525.5,925.132,535.86,941.887,537.331,943.765Z" transform="translate(-492.87 -920.524)" fill="#2b478b"/><g transform="translate(79.431 77.434)"><rect width="1.341" height="35.122" transform="translate(36.85 33.819) rotate(-162.008)" fill="#4a75cb"/><rect width="36.856" height="2.205" transform="translate(36.848 33.818) rotate(-178.777)" fill="#4a75cb"/></g><g transform="translate(38.235 43.975)"><path d="M649.448,1219.6s5.718,2.165,9.586,1.453,10.1,1.853,10.987,3.333.445,1.98-1.458,2.246-8.77,2.335-12.9.238a34.533,34.533,0,0,0-9.743-2.779Z" transform="translate(-604.246 -1157.317)" fill="#e49963"/><path d="M528.624,1049.8s1.4,47.731,11.882,53.155c5.172,2.676,28.527,10.033,35.538,11.29,0,0,1.886-1.212,2.1-6.972,0,0-24-11.959-27-17.348-4.465-8.02,6.652-30,.789-37.721S535.226,1040.249,528.624,1049.8Z" transform="translate(-528.624 -1044.297)" fill="#739af0"/></g></g><g transform="translate(682.776 529.7)"><path d="M1649.545,1578.179a25.922,25.922,0,0,1,1.774-6.647c1.24-2.479,9.127-.9,9.127-.9s1.577,1.352,1.915,7.662Z" transform="translate(-1597.577 -1349.588)" fill="#233862"/><path d="M1528.371,1568.7c1.854-1.132.8-9.57.8-9.57s-8.636-6.908-9.823-1.619-8.2,7.664-12.2,8.312c-2.758.447-3.611,1.974-3.876,2.877Z" transform="translate(-1503.274 -1340.161)" fill="#233862"/><path d="M1570.871,1302.99a39.821,39.821,0,0,0-.633,4.665c-.8,15.658-13.181,51.46-15.4,52.3-3.426,1.293-8.821-1.455-11.643-2.354a2.421,2.421,0,0,1-1.7-2.75c6.13-28.18,8.383-68.758,9.2-92.782a108.96,108.96,0,0,1,2.491-20.46s30.189-8.055,30.368,2.135C1583.723,1252.755,1573.564,1288.116,1570.871,1302.99Z" transform="translate(-1527.888 -1135.831)" fill="#213f7a"/><path d="M1587.661,1302.99l-20.167-40.926a108.973,108.973,0,0,1,2.491-20.46s30.189-8.055,30.368,2.135C1600.512,1252.755,1590.353,1288.116,1587.661,1302.99Z" transform="translate(-1544.677 -1135.831)" fill="#233862"/><path d="M1605.352,1246.52l15.959,115.669s7.008,1.69,12.459.338c0,0,4.672-61.518,4.283-76.391s3.353-39.8-.854-42.545S1605.352,1246.52,1605.352,1246.52Z" transform="translate(-1569.085 -1138.576)" fill="#213f7a"/><path d="M1616.55,1091.538l1.989,27.771a2.215,2.215,0,0,1-1.6,2.288c-2.226.646-4.793,1.1-9.744,2.121a94.512,94.512,0,0,1-18.591,1.868c-12.224.078-16.853-4.135-16.853-4.135-.527.009.278-2.549,1-14.714.245-4.121.482-9.344.654-15.946.154-5.94.258-13,.268-21.369.013-10.071,15.6-20.906,15.889-20.906l0,0c0,1.45,2.286,4.127,5.805,4.357,4.178.273,9.3-1.806,9.3-4.212,0-.024,7.552,12.082,10.235,24.982.342,1.636.6,3.36.815,5.176,0,.028.007.055.01.083.039.331.075.665.109,1,.007.059.011.119.018.177.031.305.062.615.089.925.008.088.015.179.023.267.026.284.05.567.073.855,0,.026,0,.052.007.078.018.213.033.428.049.642.012.151.023.306.034.458.018.252.034.5.052.758q.012.189.024.382.022.361.044.728c.007.107.013.216.02.325.019.351.039.705.057,1.063,0,.029,0,.057,0,.086.018.343.034.689.05,1.037.005.086.009.171.011.257q.024.49.044.986c0,.049.005.1.006.146.034.807.065,1.628.1,2.46,0,.021,0,.043,0,.064Z" transform="translate(-1547.315 -1013.292)" fill="#2b478b"/><path d="M1574.56,1048.517s-14.5-.123-17.984,4.769-11.138,31.213-7.146,39.97,11.46-3.623,15.605-8.987S1574.56,1048.517,1574.56,1048.517Z" transform="translate(-1532.306 -1013.294)" fill="#2b478b"/><path d="M1621.708,1026.6l.009,1.5s-.409,4.686,5.362,5.37,10.142-1.828,9.986-5.443a42.445,42.445,0,0,1-1.129-7.04,16.327,16.327,0,0,1,.205-2.806l-11.182-.223-3.294.538Z" transform="translate(-1579.602 -993.594)" fill="#ffb27d"/><path d="M1621.665,1018.5l.043,8.1a9.454,9.454,0,0,0,4.031.89c5.139,0,8.461-3.769,10.2-6.5a16.327,16.327,0,0,1,.205-2.806l-11.182-.223Z" transform="translate(-1579.602 -993.594)" fill="#e2915a"/><path d="M1631.323,981.615c-1.3,6.982-10.306,6.753-14.2,6.314-1.1-.122-1.785-.262-1.785-.262-1.235-.33-1.925-2.276-2.245-4.825-.636-5.044.167-12.449,1.019-14.343,1.282-2.85,3.7-5.932,12.77-3.708S1632.988,972.67,1631.323,981.615Z" transform="translate(-1573.928 -958.824)" fill="#ffb27d"/><path d="M1570.6,1103.726s-5.606,12.381-5.443,16.092a19.336,19.336,0,0,1,5.443.7C1574.98,1121.825,1570.6,1103.726,1570.6,1103.726Z" transform="translate(-1543.166 -1048.888)" fill="#233862"/><path d="M1608.376,952.405a30.016,30.016,0,0,0,8.7-2.355c3.823-1.662,8.646.168,10.212.993a2.317,2.317,0,0,0-.382-.942,2.1,2.1,0,0,1,.807,1.2c.073.054.1.09.086.1a2.694,2.694,0,0,1,1.309.084s-.358-.051-.486.179a.218.218,0,0,1-.057.063c5.963,2.881,6.514,12.306,4.6,14.487-2.309,2.624-5.077,8.532-5.077,8.532a5.066,5.066,0,0,1-.59-3.705c.42-2.309-1.574-2.309-4.093-3.358s-.42-3.988-2.624-5.772-10.285-.734-10.18-2.1C1607.6,958.719,1608.376,952.713,1608.376,952.405Z" transform="translate(-1570.977 -949.375)" fill="#233862"/><path d="M1608.665,1168.037c-2.367,9.5-27.961,14.414-33.78,15.413.245-4.121.483-9.344.654-15.946Z" transform="translate(-1549.443 -1090.006)" fill="#233862"/><path d="M1651.274,1159.525a45.119,45.119,0,0,0,6.665-1.3c.975-.487,5.437-6.828,2.515-8.453s-10.764,4.877-10.764,4.877Z" transform="translate(-1597.671 -1078.405)" fill="#ffb27d"/><path d="M1560.56,1162.352s21.062,1.143,35.2-1.884a6.075,6.075,0,0,0-4.086-5.9s-22.03-4.669-27.322-3.369S1560.56,1162.352,1560.56,1162.352Z" transform="translate(-1540.08 -1079.349)" fill="#2b478b"/><path d="M1664.42,1080.038c-4.372,5.27-10.086,9.573-16.385,10.581h0a11.747,11.747,0,0,1-1.559-7.034,14.072,14.072,0,0,1,2.294-6.458,14.279,14.279,0,0,0,1.239-2.5c3.44-8.777,2.928-25.694,2.928-25.694s14.608,1.53,19.16,8.033C1674.883,1060.951,1671.327,1071.7,1664.42,1080.038Z" transform="translate(-1595.569 -1013.563)" fill="#2b478b"/><path d="M1617.538,1022.066c-1.1-.122-1.785-.262-1.785-.262-1.235-.33-1.925-2.276-2.245-4.825a6.1,6.1,0,0,1,3.82,3.124A4.487,4.487,0,0,1,1617.538,1022.066Z" transform="translate(-1574.344 -992.96)" fill="#e2915a"/><path d="M1603.539,1026.587s-5.045-8.325-1.122-8.687a5.932,5.932,0,0,1,6.066,3.268c.567.975-.148,5.375-.148,5.375Z" transform="translate(-1566.23 -993.532)" fill="#ffb27d"/><path d="M1625.477,1076.408a10.834,10.834,0,0,1-.86,2.891,13.834,13.834,0,0,1-3.212,4.425h0c-13.1-5.914-15.754-26.223-16.2-37.382-.179-4.485,0-7.492,0-7.492,5.91-1.957,7.572,1.444,7.572,1.444s6.979,16.6,10.6,27.443C1624.762,1071.884,1625.655,1075.194,1625.477,1076.408Z" transform="translate(-1568.94 -1006.668)" fill="#2b478b"/><path d="M1637.935,1087.841c-4.372,5.27-10.086,9.573-16.385,10.581l0,0c-13.1-5.914-15.754-26.224-16.2-37.382,0,0,6.2,22.488,14.639,30.348a9.211,9.211,0,0,0,4.773,2.611s10.642-3.008,12.874-5.839A1.191,1.191,0,0,1,1637.935,1087.841Z" transform="translate(-1569.084 -1021.366)" fill="#233862"/></g><g transform="translate(623.836 400.761)"><path d="M1583.352,643.8H1354.891l-17.509-57.336h228.461Z" transform="translate(-1337.382 -586.462)" fill="#fafdff"/><g transform="translate(19.268 13.901)"><path d="M1592.113,631.074l2.094,6.858c.922,3.017-.793,5.486-3.811,5.486H1401.12a8.078,8.078,0,0,1-7.161-5.486l-2.095-6.858c-.921-3.017.794-5.486,3.811-5.486h189.277A8.079,8.079,0,0,1,1592.113,631.074Z" transform="translate(-1391.615 -625.588)" fill="#b7d5f9"/><g transform="translate(159.419 5.929)"><path d="M1843.5,643.444h-2.9l-.272-.891h4.06l.234.767-1.078,5.008H1842.4Z" transform="translate(-1840.32 -642.454)" fill="#699dee"/><path d="M1855.916,645.262c-.5-1.65.095-2.987,1.613-2.987a3.94,3.94,0,0,1,3.42,2.987c.5,1.65-.094,2.986-1.613,2.986A3.932,3.932,0,0,1,1855.916,645.262Zm3.985,0c-.347-1.138-1.218-2.071-2.109-2.071s-1.183.908-.828,2.071c.348,1.139,1.209,2.07,2.109,2.07S1860.253,646.417,1859.9,645.262Z" transform="translate(-1850.262 -642.275)" fill="#699dee"/><path d="M1871.438,643.844c-.244-.8.1-1.476.918-1.476a2.028,2.028,0,0,1,1.8,1.476c.245.8-.1,1.477-.918,1.477A2.028,2.028,0,0,1,1871.438,643.844Zm4.378-1.41h.817l-2.461,5.776h-.817Zm-2.39,1.41a1.1,1.1,0,0,0-.892-.841c-.389,0-.5.38-.362.841a1.092,1.092,0,0,0,.892.842C1873.451,644.686,1873.566,644.307,1873.425,643.844Zm2.4,2.954c-.244-.8.1-1.477.919-1.477a2.03,2.03,0,0,1,1.8,1.477c.244.8-.1,1.477-.919,1.477A2.03,2.03,0,0,1,1875.828,646.8Zm1.989,0a1.1,1.1,0,0,0-.892-.842c-.388,0-.5.379-.361.842a1.091,1.091,0,0,0,.892.841C1877.843,647.64,1877.958,647.26,1877.817,646.8Z" transform="translate(-1860.332 -642.335)" fill="#699dee"/></g><path d="M1523.661,625.588l5.446,17.83H1401.12a8.056,8.056,0,0,1-6.515-4.027,6.757,6.757,0,0,1-.646-1.459l-2.095-6.858c-.921-3.017.794-5.486,3.811-5.486Z" transform="translate(-1391.615 -625.588)" fill="#1fdd79"/><path d="M1423.755,625.588l-5.4,17.83h-11.814a8.056,8.056,0,0,1-6.515-4.027l4.175-13.8Z" transform="translate(-1397.04 -625.588)" fill="#2dc475"/><path d="M1515.821,625.588l-5.4,17.831H1490.88l5.4-17.831Z" transform="translate(-1455.613 -625.588)" fill="#2dc475"/><path d="M1610.1,625.588l-5.4,17.831h-19.55l5.4-17.831Z" transform="translate(-1516.391 -625.588)" fill="#2dc475"/><path d="M1704.383,625.588l-5.4,17.831h-19.55l5.4-17.831Z" transform="translate(-1577.179 -625.588)" fill="#2dc475"/></g><g transform="translate(28.584 39.936)"><path d="M1452.738,701.224h-34.184l-.72-2.358h34.184Z" transform="translate(-1417.834 -698.866)" fill="#afcdfb"/><path d="M1449.06,719.783h-24.838l-.72-2.357h24.838Z" transform="translate(-1421.489 -710.832)" fill="#afcdfb"/><path d="M1513.289,719.783h-14.847l-.72-2.357h14.847Z" transform="translate(-1469.339 -710.832)" fill="#afcdfb"/><path d="M1570.138,719.783h-22.68l-.72-2.357h22.68Z" transform="translate(-1500.94 -710.832)" fill="#afcdfb"/><path d="M1532.353,701.224H1522l-.72-2.358h10.35Z" transform="translate(-1484.529 -698.866)" fill="#afcdfb"/><path d="M1598.741,701.224H1561.1l-.72-2.358h37.637Z" transform="translate(-1509.739 -698.866)" fill="#afcdfb"/></g></g><g transform="translate(375.734 462.828)"><path d="M824.766,842.963H664.047l-24.982-81.808H799.784Z" transform="translate(-639.065 -761.155)" fill="#fafdff"/><path d="M823.979,813.193H683.646l-10.617-34.768H813.362Z" transform="translate(-660.962 -772.29)" fill="#4a75cb"/><g transform="translate(21.421 11.348)"><path d="M723.694,794.949H699.923l-.566-1.855h23.771Z" transform="translate(-699.356 -793.095)" fill="#cae0ff"/><path d="M802.52,794.949H782.75l-.566-1.855h19.77Z" transform="translate(-752.756 -793.095)" fill="#cae0ff"/><path d="M893.757,794.949H852.895l-.566-1.855h40.863Z" transform="translate(-797.979 -793.095)" fill="#cae0ff"/><path d="M729.406,813.654H705.635l-.566-1.854H728.84Z" transform="translate(-703.039 -805.154)" fill="#cae0ff"/><path d="M808.232,813.654h-19.77L787.9,811.8h19.77Z" transform="translate(-756.439 -805.154)" fill="#cae0ff"/><path d="M873.951,813.654H854.18l-.566-1.854h19.77Z" transform="translate(-798.809 -805.154)" fill="#cae0ff"/><path d="M967.546,815.83H926.684l-.566-1.855H966.98Z" transform="translate(-845.552 -806.556)" fill="#cae0ff"/></g><g transform="translate(26.023 26.419)"><path d="M736.648,837.369H712.876l-.566-1.855h23.771Z" transform="translate(-712.31 -835.515)" fill="#cae0ff"/><path d="M815.474,837.369H795.7l-.566-1.855h19.77Z" transform="translate(-765.71 -835.515)" fill="#cae0ff"/><path d="M906.711,837.369H865.848l-.566-1.855h40.863Z" transform="translate(-810.933 -835.515)" fill="#cae0ff"/><path d="M742.36,856.075H718.588l-.566-1.855h23.771Z" transform="translate(-715.993 -847.574)" fill="#cae0ff"/><path d="M821.186,856.075h-19.77l-.566-1.855h19.77Z" transform="translate(-769.393 -847.574)" fill="#cae0ff"/><path d="M886.9,856.075h-19.77l-.566-1.855h19.77Z" transform="translate(-811.762 -847.574)" fill="#cae0ff"/><path d="M980.5,858.25H939.638l-.566-1.855h40.863Z" transform="translate(-858.506 -848.977)" fill="#cae0ff"/></g><g transform="translate(45.892 49.949)"><g transform="translate(57.544)"><path d="M943.547,921.5c-5.447,0-11.232-4.432-12.9-9.879s1.415-9.879,6.862-9.879,11.232,4.431,12.9,9.879S948.994,921.5,943.547,921.5Zm-5.482-17.953c-4.453,0-6.969,3.622-5.609,8.075S938.543,919.7,943,919.7s6.969-3.622,5.609-8.075S942.517,903.548,938.064,903.548Z" transform="translate(-930.2 -901.744)" fill="#a8d29f"/><g transform="translate(4.145 5.801)"><path d="M949.388,927.173a2.077,2.077,0,0,1-1.115-.459l-5.6-4.439a1.636,1.636,0,0,1-.6-2.125,1.513,1.513,0,0,1,2.14.047l3.958,3.137,1.945-4.642c.282-.672,1.176-.821,2-.336a1.848,1.848,0,0,1,.976,2.1l-2.557,6.1a1.036,1.036,0,0,1-.927.618A1.483,1.483,0,0,1,949.388,927.173Z" transform="translate(-941.868 -918.071)" fill="#a8d29f"/></g></g><g transform="translate(29.278)"><path d="M863.989,921.5c-5.447,0-11.232-4.432-12.9-9.879s1.415-9.879,6.862-9.879,11.232,4.431,12.9,9.879S869.436,921.5,863.989,921.5Zm-5.483-17.953c-4.452,0-6.968,3.622-5.609,8.075s6.088,8.075,10.54,8.075,6.968-3.622,5.609-8.075S862.959,903.548,858.507,903.548Z" transform="translate(-850.643 -901.744)" fill="#a8d29f"/><g transform="translate(4.145 5.801)"><path d="M869.829,927.173a2.077,2.077,0,0,1-1.115-.459l-5.6-4.439a1.636,1.636,0,0,1-.6-2.125,1.513,1.513,0,0,1,2.14.047l3.958,3.137,1.946-4.642c.282-.672,1.176-.821,2-.336a1.848,1.848,0,0,1,.977,2.1l-2.558,6.1a1.035,1.035,0,0,1-.926.618A1.49,1.49,0,0,1,869.829,927.173Z" transform="translate(-862.31 -918.071)" fill="#a8d29f"/></g></g><path d="M781.581,921.5c-5.447,0-11.231-4.432-12.9-9.879s1.415-9.879,6.862-9.879,11.232,4.431,12.9,9.879S787.029,921.5,781.581,921.5ZM776.1,903.548c-4.452,0-6.969,3.622-5.609,8.075s6.088,8.075,10.54,8.075,6.968-3.622,5.609-8.075S780.551,903.548,776.1,903.548Z" transform="translate(-768.235 -901.744)" fill="#a8d29f"/><g transform="translate(4.145 5.801)"><path d="M787.422,927.173a2.076,2.076,0,0,1-1.114-.459l-5.6-4.439a1.636,1.636,0,0,1-.6-2.125,1.513,1.513,0,0,1,2.14.047l3.958,3.137,1.946-4.642c.282-.672,1.176-.821,2-.336a1.848,1.848,0,0,1,.976,2.1l-2.557,6.1a1.036,1.036,0,0,1-.927.618A1.489,1.489,0,0,1,787.422,927.173Z" transform="translate(-779.902 -918.071)" fill="#a8d29f"/></g><g transform="translate(84.814)"><path d="M1020.3,921.5c-5.447,0-11.232-4.432-12.9-9.879s1.415-9.879,6.862-9.879,11.231,4.431,12.895,9.879S1025.749,921.5,1020.3,921.5Zm-5.483-17.953c-4.452,0-6.968,3.622-5.608,8.075s6.088,8.075,10.54,8.075,6.968-3.622,5.609-8.075S1019.273,903.548,1014.82,903.548Z" transform="translate(-1006.956 -901.744)" fill="#f1a34f"/><g transform="translate(7.655 4.504)"><path d="M1031.67,921.413h0a2.058,2.058,0,0,1-1.823-1.4l-1.281-4.2a1,1,0,0,1,.97-1.4h0a2.056,2.056,0,0,1,1.823,1.4l1.282,4.2A1,1,0,0,1,1031.67,921.413Z" transform="translate(-1028.502 -914.422)" fill="#f1a34f"/><path d="M1037.074,938.847h-.3a1.835,1.835,0,0,1-1.627-1.246h0a.892.892,0,0,1,.865-1.246h.3a1.835,1.835,0,0,1,1.627,1.246h0A.892.892,0,0,1,1037.074,938.847Z" transform="translate(-1032.748 -928.563)" fill="#f1a34f"/></g></g></g></g></g></svg>