<?xml version="1.0" encoding="utf-8"?>
<svg xmlns="http://www.w3.org/2000/svg" width="67.183" height="69.776" viewBox="0 0 67.183 69.776"><path d="M32.906,7.133A30.408,30.408,0,0,0,32.183,0H0V12.947H18.89a17.1,17.1,0,0,1-7.008,11.319l-.064.433,10.176,8.023.7.072c6.474-6.086,10.207-15.041,10.207-25.662" transform="translate(34.277 28.531)" fill="#4285f4"/><path d="M30.621,27.988c9.255,0,17.024-3.1,22.7-8.451L42.5,11.009A20.034,20.034,0,0,1,30.621,14.5,20.677,20.677,0,0,1,11.121,0l-.4.035L.138,8.369,0,8.761A34.2,34.2,0,0,0,30.621,27.988" transform="translate(3.656 41.788)" fill="#34a853"/><path d="M14.777,22.731a21.824,21.824,0,0,1-1.142-6.9,22.936,22.936,0,0,1,1.1-6.9l-.019-.462L4.007,0,3.656.17a35.369,35.369,0,0,0,0,31.322l11.121-8.761" transform="translate(0 19.057)" fill="#fbbc05"/><path d="M30.621,13.49a18.825,18.825,0,0,1,13.254,5.195l9.674-9.614A32.621,32.621,0,0,0,30.621,0,34.2,34.2,0,0,0,0,19.227l11.083,8.761a20.761,20.761,0,0,1,19.538-14.5" transform="translate(3.656)" fill="#eb4335"/></svg>