<?xml version="1.0" encoding="utf-8"?>
<svg xmlns="http://www.w3.org/2000/svg" width="47.664" height="63.311" viewBox="0 0 47.664 63.311"><g transform="translate(0)"><path d="M38.221,63.311H30.352a1.3,1.3,0,0,1-1.292-1.205C28.5,54.581,22.177,48.1,15.478,41.229A95.21,95.21,0,0,1,5.2,29.484,27.461,27.461,0,0,1,0,16.506a1.3,1.3,0,0,1,.5-1.15,1.283,1.283,0,0,1,1.241-.177A64.3,64.3,0,0,0,9.983,17.7a1.615,1.615,0,0,1,1.131.992C13,23.874,17.773,28.773,22.83,33.96l.05.051a1.231,1.231,0,0,0,1.9,0c5.078-5.206,9.875-10.123,11.768-15.334a1.608,1.608,0,0,1,1.133-.992,63.425,63.425,0,0,0,8.227-2.5,1.27,1.27,0,0,1,.46-.086,1.3,1.3,0,0,1,.786.268,1.323,1.323,0,0,1,.5,1.162,27.429,27.429,0,0,1-5.2,12.954A95.206,95.206,0,0,1,32.185,41.229l-.261.268q-.264.271-.527.542a.939.939,0,0,0-.065,1.241c.882,1.1,1.7,2.2,2.425,3.269,3.626,5.333,5.509,10.369,5.756,15.4a1.315,1.315,0,0,1-.355.961A1.294,1.294,0,0,1,38.221,63.311Zm-20.925,0H9.442a1.307,1.307,0,0,1-1.3-1.371c.238-4.81,1.957-9.6,5.258-14.646a1.291,1.291,0,0,1,1.066-.609,1.2,1.2,0,0,1,.92.4,73.054,73.054,0,0,1,5.241,5.972,1.84,1.84,0,0,1,.158,1.975A17.585,17.585,0,0,0,18.593,62.1,1.3,1.3,0,0,1,17.3,63.311ZM37.395,12.1a4.154,4.154,0,1,1,4.126-4.155A4.147,4.147,0,0,1,37.395,12.1Zm-27.129,0a4.154,4.154,0,1,1,4.129-4.155A4.147,4.147,0,0,1,10.266,12.1ZM23.829,8.31a4.155,4.155,0,1,1,4.129-4.155A4.147,4.147,0,0,1,23.829,8.31Z" transform="translate(0)" fill="#264970"/><path d="M5.605.149C8.071.149,9.5,0,10,0a1.2,1.2,0,0,1,1.191,1.2,1.3,1.3,0,0,1-.1.481A21.028,21.028,0,0,1,6.506,8.439,1.262,1.262,0,0,1,5.6,8.8h0a1.26,1.26,0,0,1-.906-.361A21,21,0,0,1,.1,1.684,1.286,1.286,0,0,1,0,1.2,1.2,1.2,0,0,1,1.191,0c.5,0,1.932.149,4.4.149h.016" transform="translate(18.234 19.094)" fill="#264970"/></g></svg>